<svg width="96" height="102" viewBox="0 0 96 102" fill="none" xmlns="http://www.w3.org/2000/svg">
<g id="Group">
<g id="Group_2">
<path id="Vector" d="M82.7875 73.2569C81.567 75.6792 80.1378 77.7025 78.5414 79.1549C78.0727 79.5819 77.5855 79.9624 77.0843 80.2872C76.611 80.5935 76.1237 80.8534 75.6226 81.0575C68.3417 84.0646 60.889 77.2199 52.5594 78.0273C45.5801 78.7048 40.5545 82.5842 36.0996 85.8419C34.5265 86.9927 33.023 88.0693 31.5241 88.8953C31.1018 89.132 30.6795 89.3454 30.2572 89.5357C29.8025 89.7399 29.3245 89.9301 28.8094 90.1018C28.8094 90.1065 28.8048 90.1065 28.8048 90.1065L28.8001 90.1018C22.3499 92.3153 11.454 92.2318 6.62326 87.4707C1.56978 82.4822 -4.57421 66.3194 9.33331 45.5022C24.7815 22.3647 66.9959 19.1628 78.2769 26.8149C89.9617 34.7316 89.493 59.9619 82.7875 73.2569Z" fill="#E5F6FF"/>
<g id="Group_3">
<path id="Vector_2" d="M83.6692 36.2908C84.95 35.2652 85.9894 33.9381 86.6855 32.4485C86.7969 32.2072 86.9036 31.9566 86.9036 31.6921C86.9083 31.1816 86.5324 30.7315 86.1008 30.4624C85.0428 29.7941 83.5671 29.9426 82.5787 30.7129C81.5903 31.4833 81.0891 32.7919 81.1773 34.0402C81.2237 34.727 81.4603 35.4369 81.9847 35.8824C82.5091 36.3279 83.3629 36.4207 83.8734 35.9567C83.8641 35.7386 83.5671 35.5901 83.3908 35.7247L83.6692 36.2908Z" fill="#E5F6FF"/>
<path id="Vector_3" d="M85.4141 69.0618C86.6948 68.0363 87.7343 66.7091 88.4304 65.2195C88.5418 64.9782 88.6485 64.7276 88.6485 64.4631C88.6531 63.9527 88.2773 63.5025 87.8457 63.2334C86.7877 62.5652 85.312 62.7137 84.3236 63.484C83.3351 64.2543 82.834 65.5629 82.9221 66.8112C82.9685 67.498 83.2052 68.208 83.7296 68.6535C84.254 69.099 85.1078 69.1918 85.6183 68.7277C85.609 68.5096 85.312 68.3611 85.1356 68.4911L85.4141 69.0618Z" fill="#E5F6FF"/>
<path id="Vector_4" d="M83.9662 31.2373C84.6391 31.2233 85.2934 30.8382 85.6275 30.2535C85.2795 29.6781 84.6948 29.2047 84.0266 29.1722C83.3583 29.1398 82.6576 29.6827 82.6808 30.3509C82.704 31.0238 83.6507 31.4971 84.124 31.0145L83.9662 31.2373Z" fill="#E5F6FF"/>
<path id="Vector_5" d="M87.7947 26.5829C88.0546 26.7592 88.3979 26.801 88.6903 26.6989C88.6532 26.5643 88.616 26.4251 88.5325 26.3137C88.449 26.2023 88.3005 26.1281 88.1659 26.1652C87.9803 26.2163 87.9153 26.439 87.8782 26.6293C87.8504 26.5875 87.8179 26.5411 87.79 26.4993L87.7947 26.5829Z" fill="#E5F6FF"/>
<path id="Vector_6" d="M87.2145 27.6735C87.1635 27.7524 87.0892 27.822 87.0057 27.8591C86.9454 27.6224 87.0985 27.3904 87.2563 27.2048C87.3444 27.1027 87.4697 26.9867 87.595 27.0331C87.6832 27.0656 87.7343 27.1584 87.8039 27.2187C87.9477 27.3394 88.2215 27.3533 88.2401 27.5435C88.2493 27.6503 88.1565 27.7431 88.0544 27.7709C87.9524 27.7988 87.841 27.7709 87.7389 27.7477C87.5115 27.6967 87.2841 27.641 87.0567 27.5899L87.2145 27.6735Z" fill="#E5F6FF"/>
<path id="Vector_7" opacity="0.5" d="M95.8737 14.4387C96.0639 14.3969 96.0268 14.0721 95.8458 13.9932C95.6648 13.9143 95.4606 13.9979 95.2797 14.0814C95.3586 14.3412 95.6091 14.5361 95.8783 14.5547L95.8737 14.4387Z" fill="#E5F6FF"/>
<path id="Vector_8" d="M90.491 9.9477C90.398 9.957 90.319 9.86402 90.3143 9.77105C90.3097 9.67807 90.3655 9.5944 90.4305 9.52931C90.4677 9.49212 90.5142 9.45958 90.57 9.44563C90.6909 9.41309 90.8303 9.51071 90.8443 9.63623C90.8629 9.76175 90.7606 9.88727 90.6351 9.90586C90.5096 9.92446 90.3841 9.83148 90.3515 9.71062L90.491 9.9477Z" fill="#E5F6FF"/>
<path id="Vector_9" d="M87.0336 23.7478C86.9778 23.9384 87.2056 24.1383 87.3869 24.0593C87.4102 23.9616 87.4195 23.8501 87.3776 23.7571C87.3358 23.6641 87.2335 23.5944 87.1312 23.613C87.029 23.6362 86.9685 23.771 87.0383 23.8501L87.0336 23.7478Z" fill="#E5F6FF"/>
<path id="Vector_10" d="M86.3561 28.1049C86.5 28.2905 86.732 28.4066 86.9687 28.4066C86.9501 28.2163 86.9362 28.0214 86.9176 27.8311C86.9084 27.7383 86.8991 27.6455 86.848 27.5713C86.7459 27.4274 86.5 27.4367 86.384 27.5713C86.268 27.7058 86.268 27.9147 86.3608 28.0678L86.3561 28.1049Z" fill="#E5F6FF"/>
<path id="Vector_11" opacity="0.5" d="M90.4773 12.6386C90.4773 12.5735 90.4726 12.5084 90.4726 12.4434C90.375 12.3969 90.2449 12.4248 90.1844 12.5131C90.124 12.6014 90.1519 12.7409 90.2495 12.792C90.3471 12.8432 90.4819 12.7688 90.4866 12.6619L90.4773 12.6386Z" fill="#E5F6FF"/>
<path id="Vector_12" d="M87.0799 25.1721C86.9732 25.1025 86.834 25.2278 86.8154 25.3531C86.7968 25.4784 86.8479 25.6083 86.8479 25.7336C86.8432 25.8636 86.7783 25.9935 86.6762 26.077C86.6159 26.1234 86.5323 26.1559 86.4627 26.1281C86.4163 26.1095 86.3838 26.0631 86.3514 26.0213C86.2075 25.8172 86.0822 25.5851 86.0683 25.3299C86.0544 25.0793 86.1704 24.8055 86.3978 24.6988C86.5555 24.6246 86.7551 24.6478 86.8943 24.7498C87.0335 24.8519 87.117 25.0376 87.0938 25.2093L87.0799 25.1721Z" fill="#E5F6FF"/>
<path id="Vector_13" d="M89.3957 27.6698C89.5026 27.7907 89.7072 27.7814 89.8234 27.6698C89.9396 27.5583 89.9675 27.3816 89.921 27.2282C89.9024 27.1631 89.8513 27.0887 89.7815 27.0934C89.7351 27.098 89.7025 27.1445 89.6746 27.1817C89.563 27.3444 89.4515 27.5025 89.3399 27.6652L89.3957 27.6698Z" fill="#E5F6FF"/>
<path id="Vector_14" d="M92.8249 21.019C92.5187 20.9169 92.398 20.4667 92.6161 20.2208C92.8389 20.3368 93.0755 20.4621 93.2008 20.6802C93.3261 20.8983 93.2704 21.2371 93.0291 21.3159C92.8945 21.2603 92.7553 21.2092 92.6208 21.1535L92.8249 21.019Z" fill="#E5F6FF"/>
<path id="Vector_15" d="M78.3241 41.619C78.3008 41.6887 78.2032 41.7073 78.1381 41.6748C78.073 41.6422 78.0358 41.5725 78.0079 41.5028C77.9847 41.447 77.9661 41.3866 77.9707 41.3308C77.98 41.2146 78.0916 41.1169 78.2078 41.1076C78.3241 41.0983 78.4449 41.1634 78.5054 41.261C78.5379 41.3075 78.5565 41.368 78.5425 41.4237C78.5286 41.4795 78.4728 41.526 78.417 41.5121L78.3241 41.619Z" fill="#E5F6FF"/>
<path id="Vector_16" d="M88.6997 23.08C88.7694 23.08 88.8345 23.0753 88.9042 23.0753C88.9135 22.9684 88.9228 22.8522 88.8578 22.7685C88.7927 22.6848 88.63 22.6802 88.6021 22.7825C88.5928 22.8196 88.6021 22.8615 88.616 22.8987C88.6532 23.0195 88.6904 23.1404 88.7276 23.2613L88.6997 23.08Z" fill="#E5F6FF"/>
<path id="Vector_17" d="M90.1148 19.7289C90.2773 19.6825 90.4443 19.6361 90.5742 19.534C90.7042 19.4273 90.7923 19.2509 90.7367 19.0931C90.7088 19.0143 90.6531 18.9493 90.5835 18.9029C90.3701 18.7683 90.0545 18.8472 89.9292 19.0653C89.8039 19.2834 89.9014 19.599 90.1288 19.7103L90.1148 19.7289Z" fill="#E5F6FF"/>
<path id="Vector_18" d="M91.8042 19.2099C91.8786 19.1262 91.953 19.0379 92.032 18.9542C91.9808 18.8845 91.9158 18.8194 91.8414 18.7776C91.6926 18.852 91.6275 19.0658 91.7159 19.2099H91.8042Z" fill="#E5F6FF"/>
<path id="Vector_19" d="M94.644 29.6641C94.9364 29.0748 95.0941 28.4205 95.0941 27.7615C95.0941 27.6548 95.0895 27.5481 95.0477 27.4506C94.9642 27.265 94.7507 27.1629 94.5512 27.1397C94.0547 27.0748 93.5442 27.3764 93.3122 27.8219C93.0848 28.2674 93.1219 28.8289 93.3632 29.2651C93.4978 29.5064 93.702 29.7245 93.9665 29.7987C94.231 29.873 94.5558 29.7616 94.6672 29.511C94.6254 29.4321 94.4955 29.4321 94.4537 29.5064L94.644 29.6641Z" fill="#E5F6FF"/>
<path id="Vector_20" d="M81.3304 26.9819C81.6413 26.968 81.943 26.7963 82.1193 26.5365C82.0079 26.4483 81.8966 26.3601 81.762 26.323C81.6274 26.2859 81.465 26.3091 81.3815 26.4251C81.2655 26.5782 81.3444 26.7963 81.4279 26.968C81.3768 26.9495 81.3304 26.9355 81.2794 26.917L81.3304 26.9819Z" fill="#E5F6FF"/>
<path id="Vector_21" d="M81.7713 24.7685C81.8502 24.7267 81.9291 24.6756 81.9662 24.5968C81.9987 24.5179 81.9801 24.4297 81.9616 24.3462C81.9152 24.1188 81.8873 23.8868 81.8827 23.6594C81.6414 23.961 81.4001 24.258 81.1588 24.5596C81.1402 24.5828 81.1217 24.606 81.0938 24.6246C81.001 24.6756 80.8943 24.5782 80.7875 24.5689C80.6298 24.555 80.5277 24.722 80.4813 24.8752C80.1611 25.9379 81.3537 25.0005 81.7713 24.7685Z" fill="#E5F6FF"/>
<path id="Vector_22" d="M81.0845 29.0609C81.3119 29.1259 81.5671 29.0748 81.7574 28.9356C81.6274 28.7917 81.4975 28.6479 81.3722 28.504C81.3119 28.4344 81.2469 28.3648 81.1588 28.337C80.9871 28.2813 80.8014 28.4344 80.7875 28.6154C80.7736 28.7917 80.9035 28.9588 81.066 29.0284L81.0845 29.0609Z" fill="#E5F6FF"/>
<path id="Vector_23" d="M83.2608 26.8938C83.4186 26.9263 83.5764 26.7963 83.6042 26.6386C83.6321 26.4808 83.5439 26.3184 83.4186 26.2256C83.3629 26.1838 83.2794 26.156 83.2283 26.2024C83.1959 26.2348 83.1912 26.2905 83.1959 26.3369C83.2005 26.5318 83.2098 26.7267 83.2144 26.9263L83.2608 26.8938Z" fill="#E5F6FF"/>
<path id="Vector_24" d="M84.9593 29.0702C85.1217 29.0238 85.2888 28.9774 85.4187 28.8753C85.5487 28.7685 85.6368 28.5922 85.5811 28.4344C85.5533 28.3555 85.4976 28.2906 85.428 28.2442C85.2145 28.1096 84.899 28.1885 84.7737 28.4066C84.6484 28.6247 84.7459 28.9402 84.9732 29.0516L84.9593 29.0702Z" fill="#E5F6FF"/>
<path id="Vector_25" d="M91.8179 24.1188C91.8458 23.9518 91.6787 23.8218 91.5302 23.7383C91.3817 23.6594 91.2054 23.5573 91.1914 23.3856C91.1868 23.3392 91.2007 23.2882 91.2379 23.2603C91.3307 23.1861 91.4513 23.3021 91.5627 23.3485C91.6509 23.3903 91.7483 23.3856 91.8411 23.4042C92.0639 23.4506 92.2495 23.6455 92.2773 23.8682C92.2356 23.9842 92.1242 24.0678 92.0035 24.0771C91.8829 24.0863 91.7576 24.0167 91.7019 23.91L91.8179 24.1188Z" fill="#E5F6FF"/>
<path id="Vector_26" d="M91.3213 19.947C91.3492 19.7799 91.1821 19.65 91.0336 19.5665C90.8851 19.4876 90.7088 19.3855 90.6949 19.2138C90.6902 19.1674 90.7041 19.1163 90.7413 19.0885C90.8341 19.0142 90.9547 19.1303 91.0661 19.1767C91.1543 19.2184 91.2517 19.2138 91.3445 19.2323C91.5673 19.2787 91.7529 19.4736 91.7807 19.6964C91.739 19.8124 91.6276 19.8959 91.5069 19.9052C91.3863 19.9145 91.261 19.8449 91.2053 19.7382L91.3213 19.947Z" fill="#E5F6FF"/>
<path id="Vector_27" d="M93.4239 17.6231C93.5308 17.5347 93.6145 17.4185 93.6656 17.293C93.6749 17.2744 93.6842 17.2512 93.6842 17.2279C93.6842 17.1861 93.6517 17.1489 93.6145 17.1256C93.5215 17.0745 93.4006 17.0884 93.3169 17.1582C93.2379 17.2279 93.1961 17.3395 93.21 17.4418C93.2147 17.4975 93.2379 17.558 93.2844 17.5952C93.3309 17.6324 93.4006 17.637 93.4425 17.5952C93.4425 17.5766 93.4146 17.5673 93.4006 17.5766L93.4239 17.6231Z" fill="#E5F6FF"/>
<path id="Vector_28" d="M81.7202 33.8221C82.0311 33.8082 82.3327 33.6365 82.5091 33.3766C82.3977 33.2884 82.2863 33.2002 82.1517 33.1631C82.0172 33.126 81.8547 33.1492 81.7712 33.2652C81.6552 33.4183 81.7341 33.6365 81.8176 33.8082C81.7666 33.7896 81.7155 33.7757 81.6691 33.7571L81.7202 33.8221Z" fill="#E5F6FF"/>
<path id="Vector_29" d="M79.4139 32.008C79.4836 32.1939 79.7858 32.2172 79.8834 32.0452C79.8416 31.9522 79.7812 31.8592 79.6928 31.8127C79.6045 31.7616 79.479 31.7662 79.4093 31.8453C79.3442 31.9243 79.3767 32.0684 79.4743 32.0916L79.4139 32.008Z" fill="#E5F6FF"/>
<path id="Vector_30" d="M83.9151 29.3815C83.9849 29.5674 84.287 29.5907 84.3847 29.4186C84.3428 29.3257 84.2824 29.2327 84.1941 29.1862C84.1057 29.1351 83.9802 29.1397 83.9105 29.2188C83.8454 29.2978 83.8779 29.4419 83.9756 29.4651L83.9151 29.3815Z" fill="#E5F6FF"/>
<path id="Vector_31" d="M80.3002 33.126C80.175 33.1352 80.1378 33.3209 80.1982 33.4322C80.2585 33.5436 80.3745 33.6132 80.4487 33.7199C80.523 33.8267 80.5508 33.9705 80.5183 34.0958C80.4998 34.1701 80.4534 34.2443 80.3791 34.2629C80.3281 34.2768 80.277 34.2629 80.2306 34.2443C79.9893 34.1654 79.7527 34.0541 79.5903 33.8638C79.4278 33.6735 79.3582 33.3812 79.4789 33.1631C79.5624 33.0099 79.7341 32.9079 79.9104 32.9032C80.0868 32.9032 80.2585 33.0007 80.3467 33.1538L80.3002 33.126Z" fill="#E5F6FF"/>
<path id="Vector_32" d="M90.8619 22.6802C90.7366 22.6895 90.6995 22.8751 90.7598 22.9865C90.8202 23.0979 90.9362 23.1675 91.0104 23.2742C91.0847 23.381 91.1125 23.5248 91.08 23.6501C91.0615 23.7244 91.0151 23.7986 90.9408 23.8172C90.8898 23.8311 90.8387 23.8172 90.7923 23.7986C90.551 23.7197 90.3143 23.6083 90.1519 23.4181C89.9895 23.2278 89.9199 22.9355 90.0406 22.7174C90.1241 22.5642 90.2958 22.4621 90.4721 22.4575C90.6485 22.4575 90.8202 22.555 90.9083 22.7081L90.8619 22.6802Z" fill="#E5F6FF"/>
<path id="Vector_33" d="M92.1939 23.664C92.0686 23.6733 92.0315 23.8589 92.0918 23.9703C92.1521 24.0817 92.2681 24.1513 92.3424 24.258C92.4166 24.3647 92.4445 24.5086 92.412 24.6339C92.3934 24.7081 92.347 24.7824 92.2728 24.8009C92.2217 24.8149 92.1707 24.8009 92.1243 24.7824C91.883 24.7035 91.6463 24.5921 91.4839 24.4018C91.3215 24.2116 91.2519 23.9192 91.3725 23.7011C91.4561 23.548 91.6278 23.4459 91.8041 23.4413C91.9804 23.4413 92.1521 23.5387 92.2403 23.6919L92.1939 23.664Z" fill="#E5F6FF"/>
<path id="Vector_34" d="M90.2912 25.3578C90.1659 25.3671 90.1288 25.5527 90.1892 25.6641C90.2495 25.7755 90.3655 25.8451 90.4397 25.9518C90.514 26.0585 90.5418 26.2024 90.5093 26.3277C90.4908 26.4019 90.4444 26.4762 90.3701 26.4947C90.3191 26.5087 90.268 26.4947 90.2216 26.4762C89.9803 26.3973 89.7437 26.2859 89.5812 26.0957C89.4188 25.9054 89.3492 25.613 89.4699 25.3949C89.5534 25.2418 89.7251 25.1397 89.9014 25.1351C90.0778 25.1351 90.2495 25.2325 90.3376 25.3857L90.2912 25.3578Z" fill="#E5F6FF"/>
<path id="Vector_35" d="M81.4186 9.84931C81.2933 9.85859 81.2561 10.0442 81.3165 10.1556C81.3768 10.267 81.4928 10.3366 81.5671 10.4433C81.6413 10.55 81.6692 10.6939 81.6367 10.8192C81.6181 10.8934 81.5717 10.9677 81.4975 10.9862C81.4464 11.0002 81.3954 10.9862 81.349 10.9677C81.1077 10.8888 80.871 10.7774 80.7086 10.5872C80.5462 10.3969 80.4765 10.1045 80.5972 9.88644C80.6807 9.7333 80.8524 9.63121 81.0288 9.62657C81.2051 9.62657 81.3768 9.72402 81.465 9.87716L81.4186 9.84931Z" fill="#E5F6FF"/>
<path id="Vector_36" d="M80.3425 30.4769C80.3983 30.435 80.4494 30.3932 80.5052 30.3514C80.4494 30.263 80.389 30.1654 80.2867 30.1329C80.1845 30.105 80.0543 30.1979 80.0915 30.2956C80.1054 30.3328 80.138 30.356 80.1705 30.3793C80.2728 30.4536 80.3751 30.528 80.4773 30.607L80.3425 30.4769Z" fill="#E5F6FF"/>
<path id="Vector_37" d="M84.277 17.6406C84.4394 17.5942 84.6065 17.5478 84.7364 17.4457C84.8663 17.339 84.9545 17.1627 84.8988 17.0049C84.871 16.926 84.8153 16.861 84.7457 16.8146C84.5322 16.6801 84.2167 16.7589 84.0914 16.977C83.9661 17.1951 84.0635 17.5107 84.2909 17.6221L84.277 17.6406Z" fill="#E5F6FF"/>
<path id="Vector_38" d="M85.378 31.6278C85.2431 31.8277 84.8759 31.7719 84.8062 31.5441C84.848 31.4186 84.9131 31.3024 85.006 31.2001C85.1362 31.2652 85.2431 31.3814 85.2943 31.5162L85.378 31.6278Z" fill="#E5F6FF"/>
<path id="Vector_39" opacity="0.5" d="M86.2447 16.81C86.3329 16.7683 86.4211 16.7218 86.4814 16.6522C86.5417 16.578 86.5742 16.4713 86.5232 16.3877C86.4443 16.2485 86.2355 16.2764 86.1055 16.1882C85.9709 16.1 85.9199 15.9051 85.7668 15.868C85.6136 15.8309 85.4744 15.9979 85.4791 16.1557C85.4837 16.3135 85.5858 16.4481 85.6879 16.5641C85.7807 16.6708 85.8828 16.7729 86.0174 16.8147C86.1519 16.8564 86.319 16.81 86.3793 16.6847L86.2447 16.81Z" fill="#E5F6FF"/>
<path id="Vector_40" d="M88.2773 25.2C88.8249 25.5944 89.5813 25.6733 90.1985 25.4088C90.2634 24.7406 90.0825 24.0074 89.5627 23.5805C89.0476 23.1535 88.1613 23.1675 87.7761 23.7197C87.3956 24.2719 87.8689 25.2186 88.5325 25.1165L88.2773 25.2Z" fill="#E5F6FF"/>
<path id="Vector_41" d="M86.5744 32.6069C86.4954 32.5604 86.4861 32.4395 86.5372 32.3605C86.5883 32.2861 86.686 32.2489 86.7743 32.235C86.8301 32.2303 86.8859 32.2303 86.937 32.2489C87.0532 32.2954 87.1044 32.4535 87.0439 32.565C86.9835 32.6766 86.8254 32.7184 86.7185 32.6534C86.6069 32.5929 86.5605 32.4442 86.6069 32.3279L86.5744 32.6069Z" fill="#E5F6FF"/>
<path id="Vector_42" d="M87.363 28.9959C87.3305 28.8289 87.1309 28.7593 86.9639 28.7314C86.7968 28.7036 86.5973 28.6665 86.5277 28.5133C86.5091 28.4716 86.5045 28.4205 86.5277 28.3787C86.588 28.2767 86.7411 28.3463 86.8618 28.3555C86.9546 28.3648 87.0474 28.3277 87.1449 28.3138C87.3722 28.2813 87.6089 28.4066 87.711 28.6061C87.711 28.7268 87.6321 28.8474 87.5207 28.8938C87.4094 28.9402 87.2701 28.917 87.182 28.8335L87.363 28.9959Z" fill="#E5F6FF"/>
<path id="Vector_43" d="M86.4633 23.6645C86.5005 23.6133 86.5377 23.5576 86.5749 23.5064C86.5238 23.4134 86.4029 23.3577 86.3006 23.3902C86.1983 23.4227 86.1379 23.5529 86.1844 23.6505C86.2309 23.7482 86.3843 23.7714 86.454 23.6877L86.4633 23.6645Z" fill="#E5F6FF"/>
<path id="Vector_44" d="M85.8088 27.3355C85.7484 27.3774 85.6601 27.3355 85.6275 27.2704C85.595 27.2054 85.6043 27.1263 85.6229 27.0566C85.6368 27.0008 85.6601 26.9404 85.6973 26.8939C85.7763 26.8056 85.9204 26.7916 86.0227 26.8567C86.1249 26.9218 86.1761 27.0426 86.1668 27.1589C86.1621 27.2146 86.1435 27.2751 86.0971 27.3123C86.0506 27.3495 85.9808 27.3541 85.939 27.3076L85.8088 27.3355Z" fill="#E5F6FF"/>
<path id="Vector_45" d="M80.6066 25.1907C80.7644 25.845 81.2795 26.4019 81.9245 26.6061C82.4118 26.142 82.7505 25.4738 82.6391 24.8102C82.5278 24.1466 81.8503 23.5805 81.196 23.7475C80.5463 23.9146 80.2864 24.9401 80.8526 25.2975L80.6066 25.1907Z" fill="#E5F6FF"/>
<path id="Vector_46" d="M81.3629 30.4113C81.5532 30.3695 81.5161 30.0447 81.3351 29.9658C81.1541 29.8869 80.9499 29.9704 80.769 30.054C80.8478 30.3138 81.0984 30.5087 81.3676 30.5273L81.3629 30.4113Z" fill="#E5F6FF"/>
<path id="Vector_47" d="M88.4355 31.4327C88.4727 31.3816 88.5099 31.3258 88.5471 31.2747C88.496 31.1817 88.3751 31.1259 88.2728 31.1584C88.1706 31.191 88.1101 31.3212 88.1566 31.4188C88.2031 31.5164 88.3565 31.5397 88.4263 31.456L88.4355 31.4327Z" fill="#E5F6FF"/>
<path id="Vector_48" d="M85.9151 28.9078C86.4859 28.4809 86.95 27.9148 87.2702 27.279C87.3212 27.1769 87.3723 27.0702 87.3769 26.9542C87.3862 26.7314 87.2284 26.5319 87.0428 26.4112C86.5927 26.1096 85.9523 26.1514 85.5114 26.4762C85.0752 26.7964 84.8386 27.3579 84.8618 27.9008C84.8757 28.1978 84.9685 28.5087 85.1866 28.7083C85.4093 28.9078 85.7759 28.9589 86.0033 28.764C86.0033 28.6665 85.8734 28.6015 85.7945 28.6572L85.9151 28.9078Z" fill="#E5F6FF"/>
<path id="Vector_49" d="M79.3768 19.1442C80.0497 19.1303 80.704 18.7452 81.0381 18.1605C80.6901 17.585 80.1053 17.1117 79.4371 17.0792C78.7689 17.0467 78.0682 17.5897 78.0914 18.2579C78.1146 18.9308 79.0612 19.4041 79.5346 18.9215L79.3768 19.1442Z" fill="#E5F6FF"/>
<path id="Vector_50" d="M92.0082 17.8216C92.3191 17.8077 92.6208 17.636 92.7971 17.3762C92.6857 17.288 92.5744 17.1998 92.4398 17.1627C92.3052 17.1256 92.1428 17.1488 92.0593 17.2648C91.9433 17.4179 92.0221 17.636 92.1057 17.8077C92.0546 17.7892 92.0036 17.7752 91.9572 17.7567L92.0082 17.8216Z" fill="#E5F6FF"/>
<path id="Vector_51" d="M92.4491 15.6081C92.5234 15.5664 92.6069 15.5153 92.6394 15.4364C92.6719 15.3575 92.6533 15.2694 92.6347 15.1858C92.5883 14.9585 92.5605 14.7264 92.5559 14.4991C92.3146 14.8007 92.0732 15.0977 91.8319 15.3993C91.8134 15.4225 91.7948 15.4457 91.767 15.4643C91.6742 15.5153 91.5674 15.4179 91.4607 15.4086C91.3029 15.3947 91.2008 15.5617 91.1544 15.7149C90.8389 16.7775 92.0315 15.8402 92.4491 15.6081Z" fill="#E5F6FF"/>
<path id="Vector_52" d="M87.9709 28.5272C88.0451 28.4437 88.1193 28.3602 88.1982 28.272C88.0219 28.1328 87.7528 28.0817 87.5718 28.2117C87.3908 28.3463 87.4001 28.6896 87.6135 28.7593C87.7481 28.801 87.9709 28.8149 87.9291 28.9449L87.9709 28.5272Z" fill="#E5F6FF"/>
<path id="Vector_53" d="M88.3467 18.8194C88.2957 18.9029 88.2214 18.9679 88.1379 19.005C88.0776 18.7683 88.2307 18.5363 88.3885 18.3507C88.4767 18.2486 88.6019 18.1326 88.7272 18.179C88.8154 18.2115 88.8665 18.3043 88.9361 18.3646C89.0799 18.4852 89.3537 18.4992 89.3723 18.6894C89.3815 18.7962 89.2887 18.889 89.1867 18.9168C89.0846 18.9446 88.9732 18.9168 88.8711 18.8936C88.6437 18.8426 88.4163 18.7869 88.1889 18.7358L88.3467 18.8194Z" fill="#E5F6FF"/>
<path id="Vector_54" d="M85.2424 16.8147C85.4326 16.7729 85.3955 16.4481 85.2145 16.3692C85.0336 16.2903 84.8294 16.3738 84.6484 16.4573C84.7273 16.7172 84.9779 16.9121 85.247 16.9307L85.2424 16.8147Z" fill="#E5F6FF"/>
<path id="Vector_55" opacity="0.5" d="M89.0109 14.9733C88.9179 14.9826 88.8388 14.8896 88.8342 14.7966C88.8295 14.7037 88.8853 14.62 88.9504 14.5549C88.9876 14.5177 89.0341 14.4852 89.0899 14.4712C89.2107 14.4387 89.3502 14.5363 89.3642 14.6618C89.3828 14.7873 89.2805 14.9129 89.155 14.9315C89.0294 14.9501 88.9039 14.8571 88.8714 14.7362L89.0109 14.9733Z" fill="#E5F6FF"/>
<path id="Vector_56" d="M89.7019 16.0076C89.7716 16.1936 90.0738 16.2168 90.1714 16.0448C90.1296 15.9518 90.0692 15.8588 89.9808 15.8124C89.8925 15.7612 89.767 15.7659 89.6973 15.8449C89.6322 15.9239 89.6647 16.068 89.7623 16.0913L89.7019 16.0076Z" fill="#E5F6FF"/>
<path id="Vector_57" d="M91.7668 19.9005C91.9942 19.9655 92.2494 19.9145 92.4397 19.7752C92.3098 19.6314 92.1798 19.4875 92.0545 19.3437C91.9942 19.2741 91.9292 19.2045 91.8411 19.1766C91.6694 19.1209 91.4838 19.2741 91.4698 19.455C91.4559 19.6314 91.5858 19.7984 91.7483 19.868L91.7668 19.9005Z" fill="#E5F6FF"/>
<path id="Vector_58" opacity="0.5" d="M86.2824 14.6116C86.1476 14.6209 86.0082 14.5372 85.9477 14.4163C85.8873 14.2955 85.9059 14.1374 85.9989 14.0351C86.0593 13.9654 86.1802 13.9236 86.2406 13.9979C86.2639 14.0258 86.2732 14.0677 86.2778 14.1095C86.301 14.2815 86.3243 14.4535 86.3475 14.6209C86.3196 14.6209 86.2871 14.6209 86.2592 14.6209L86.2824 14.6116Z" fill="#E5F6FF"/>
<path id="Vector_59" opacity="0.5" d="M84.9917 12.2531C85.0195 12.0861 84.8525 11.9561 84.704 11.8726C84.5555 11.7937 84.3792 11.6916 84.3652 11.5199C84.3606 11.4735 84.3745 11.4225 84.4116 11.3946C84.5045 11.3204 84.6251 11.4364 84.7365 11.4828C84.8247 11.5246 84.9221 11.5199 85.0149 11.5385C85.2376 11.5849 85.4233 11.7798 85.4511 12.0025C85.4093 12.1185 85.298 12.2021 85.1773 12.2113C85.0567 12.2206 84.9314 12.151 84.8757 12.0443L84.9917 12.2531Z" fill="#E5F6FF"/>
<path id="Vector_60" opacity="0.5" d="M92.8806 25.4971C92.9084 25.33 92.7413 25.2001 92.5928 25.1165C92.4444 25.0376 92.268 24.9356 92.2541 24.7639C92.2495 24.7175 92.2634 24.6664 92.3005 24.6386C92.3933 24.5643 92.514 24.6803 92.6253 24.7267C92.7135 24.7685 92.811 24.7639 92.9038 24.7824C93.1265 24.8288 93.3121 25.0237 93.34 25.2465C93.2982 25.3625 93.1868 25.446 93.0662 25.4553C92.9455 25.4646 92.8202 25.395 92.7645 25.2882L92.8806 25.4971Z" fill="#E5F6FF"/>
<path id="Vector_61" opacity="0.5" d="M86.4957 11.4694C86.5468 11.4322 86.6026 11.395 86.6537 11.3578C86.6351 11.2509 86.5422 11.1579 86.4352 11.1579C86.3283 11.1579 86.226 11.2602 86.24 11.3671C86.2539 11.474 86.3888 11.5484 86.4817 11.4926L86.4957 11.4694Z" fill="#E5F6FF"/>
<path id="Vector_62" d="M90.5883 17.121C90.463 17.1302 90.4259 17.3159 90.4862 17.4272C90.5465 17.5386 90.6626 17.6082 90.7368 17.7149C90.8111 17.8217 90.8389 17.9655 90.8064 18.0908C90.7878 18.1651 90.7414 18.2393 90.6672 18.2579C90.6162 18.2718 90.5651 18.2579 90.5141 18.2393C90.2728 18.1604 90.0361 18.049 89.8737 17.8588C89.7113 17.6685 89.6416 17.3762 89.7623 17.1581C89.8458 17.0049 90.0175 16.9028 90.1939 16.8982C90.3702 16.8982 90.5419 16.9957 90.6301 17.1488L90.5883 17.121Z" fill="#E5F6FF"/>
<path id="Vector_63" d="M93.9386 17.7335C94.0964 17.766 94.2542 17.6361 94.282 17.4783C94.3099 17.3205 94.2217 17.1581 94.0964 17.0653C94.0407 17.0235 93.9572 16.9957 93.9061 17.0421C93.8737 17.0746 93.869 17.1303 93.8737 17.1767C93.8783 17.3716 93.8876 17.5665 93.8922 17.766L93.9386 17.7335Z" fill="#E5F6FF"/>
<path id="Vector_64" d="M85.3491 19.5803C85.0428 19.4782 84.9222 19.0281 85.1403 18.7822C85.363 18.8982 85.5997 19.0235 85.725 19.2416C85.8503 19.4597 85.7946 19.7984 85.5533 19.8773C85.4187 19.8216 85.2795 19.7706 85.1449 19.7149L85.3491 19.5803Z" fill="#E5F6FF"/>
<path id="Vector_65" opacity="0.5" d="M90.6351 14.4718C90.6909 14.43 90.742 14.3882 90.7978 14.3463C90.742 14.258 90.6816 14.1604 90.5793 14.1278C90.477 14.0999 90.3469 14.1929 90.3841 14.2905C90.398 14.3277 90.4305 14.351 90.4631 14.3742C90.5654 14.4486 90.6676 14.523 90.7699 14.602L90.6351 14.4718Z" fill="#E5F6FF"/>
<path id="Vector_66" d="M83.8735 31.1445C84.0359 31.0981 84.2029 31.0517 84.3329 30.9496C84.4628 30.8428 84.551 30.6665 84.4953 30.5087C84.4675 30.4298 84.4118 30.3649 84.3422 30.3185C84.1287 30.1839 83.8131 30.2628 83.6878 30.4809C83.5626 30.699 83.66 31.0145 83.8874 31.1259L83.8735 31.1445Z" fill="#E5F6FF"/>
<path id="Vector_67" d="M81.1728 21.5859C81.2472 21.5022 81.3216 21.4139 81.4006 21.3302C81.3495 21.2604 81.2844 21.1954 81.21 21.1535C81.0613 21.2279 80.9962 21.4417 81.0845 21.5859H81.1728Z" fill="#E5F6FF"/>
<path id="Vector_68" d="M78.4629 38.1154C78.3699 38.1247 78.2909 38.0317 78.2863 37.9387C78.2816 37.8457 78.3374 37.7621 78.4025 37.697C78.4397 37.6598 78.4862 37.6272 78.5419 37.6133C78.6628 37.5808 78.8023 37.6784 78.8162 37.8039C78.8348 37.9294 78.7325 38.0549 78.607 38.0735C78.4815 38.0921 78.356 37.9991 78.3234 37.8783L78.4629 38.1154Z" fill="#E5F6FF"/>
<path id="Vector_69" d="M83.9293 21.0058C84.0036 20.9221 84.078 20.8338 84.157 20.7501C84.1059 20.6804 84.0408 20.6153 83.9664 20.5734C83.8177 20.6478 83.7526 20.8617 83.8409 21.0058H83.9293Z" fill="#E5F6FF"/>
<path id="Vector_70" d="M91.1496 26.9217C91.2749 26.9495 91.3631 26.7871 91.3353 26.6618C91.3074 26.5365 91.2192 26.4344 91.1775 26.3138C91.1357 26.1885 91.1543 26.0446 91.2239 25.9332C91.2657 25.8683 91.3306 25.8079 91.4049 25.8126C91.4559 25.8172 91.5023 25.8451 91.5441 25.8729C91.7483 26.0168 91.9432 26.1931 92.0453 26.4251C92.1427 26.6572 92.1241 26.9541 91.9478 27.1305C91.8225 27.2511 91.6276 27.3022 91.4605 27.2511C91.2935 27.2001 91.1543 27.0562 91.1172 26.8845L91.1496 26.9217Z" fill="#E5F6FF"/>
<path id="Vector_71" d="M84.4581 28.0075C84.3653 28.0214 84.2632 28.04 84.1843 28.091C84.1055 28.1421 84.0451 28.2395 84.0637 28.3323C84.0962 28.4855 84.305 28.5226 84.4071 28.6479C84.5092 28.7685 84.4999 28.9727 84.6391 29.0562C84.7737 29.1351 84.9593 29.0191 85.0011 28.866C85.0428 28.7128 84.9871 28.5551 84.9222 28.4112C84.8665 28.2859 84.7969 28.156 84.6809 28.0771C84.5649 27.9982 84.3885 27.9936 84.2957 28.0957L84.4581 28.0075Z" fill="#E5F6FF"/>
<path id="Vector_72" d="M89.2935 22.4807C88.9594 22.9541 88.732 23.5063 88.6439 24.0771C88.6299 24.1699 88.616 24.2673 88.6439 24.3555C88.6903 24.5318 88.862 24.6432 89.0337 24.6942C89.4606 24.8195 89.9432 24.6246 90.2031 24.2673C90.4629 23.91 90.5093 23.4181 90.3562 23.0005C90.2727 22.7731 90.1242 22.555 89.9014 22.4529C89.6787 22.3508 89.3817 22.4018 89.2518 22.6107C89.275 22.6849 89.391 22.7035 89.4374 22.6431L89.2935 22.4807Z" fill="#E5F6FF"/>
<path id="Vector_73" d="M91.7854 25.8729C91.8597 25.9193 91.9432 25.9657 92.0314 25.9564C92.1149 25.9471 92.1845 25.8868 92.2448 25.8311C92.4165 25.678 92.6068 25.5388 92.8017 25.4227C92.4212 25.3624 92.0406 25.3021 91.6601 25.2418C91.6276 25.2371 91.5998 25.2325 91.5719 25.2139C91.4791 25.1582 91.5116 25.019 91.4652 24.9216C91.4003 24.7824 91.2007 24.7731 91.0476 24.8056C89.971 25.0561 91.377 25.6223 91.7854 25.8729Z" fill="#E5F6FF"/>
<path id="Vector_74" d="M89.4331 22.523C89.4889 22.4904 89.5447 22.4532 89.6005 22.4207C89.5912 22.3138 89.5029 22.2161 89.396 22.2068C89.289 22.1976 89.1821 22.2905 89.1868 22.3974C89.1914 22.5044 89.3216 22.5881 89.4192 22.5369L89.4331 22.523Z" fill="#E5F6FF"/>
<path id="Vector_75" d="M92.152 24.0724C92.1984 24.2255 92.3933 24.2998 92.5418 24.2441C92.6903 24.1884 92.7877 24.0353 92.8063 23.8775C92.8156 23.8079 92.797 23.7197 92.7321 23.7012C92.6857 23.6872 92.6392 23.7151 92.5975 23.7383C92.4304 23.8404 92.2634 23.9425 92.0963 24.0492L92.152 24.0724Z" fill="#E5F6FF"/>
<path id="Vector_76" d="M90.6114 22.6338C90.7784 22.8983 91.0754 23.0746 91.3863 23.0978C91.4095 22.9586 91.4281 22.8148 91.3956 22.6802C91.3631 22.5456 91.2564 22.4157 91.1172 22.3971C90.9269 22.3739 90.7784 22.5503 90.6717 22.708C90.6624 22.657 90.6531 22.606 90.6438 22.5503L90.6114 22.6338Z" fill="#E5F6FF"/>
<path id="Vector_77" d="M90.1844 21.2835C90.0916 21.2835 89.9941 21.251 89.9199 21.1907C90.0962 21.019 90.3746 21.0375 90.6113 21.0793C90.7459 21.1025 90.9036 21.1535 90.9315 21.2881C90.95 21.3809 90.8897 21.4691 90.8758 21.5619C90.8433 21.7475 90.964 21.9888 90.8108 22.1002C90.7227 22.1652 90.5974 22.128 90.5185 22.0491C90.4442 21.9703 90.4117 21.8635 90.3793 21.7614C90.3097 21.5387 90.2447 21.3159 90.1751 21.0886L90.1844 21.2835Z" fill="#E5F6FF"/>
<path id="Vector_78" d="M90.9455 24.7917C91.0012 25.0191 91.1729 25.2186 91.3863 25.3114C91.4467 25.1304 91.507 24.9448 91.5673 24.7592C91.5952 24.671 91.623 24.5829 91.6044 24.4947C91.5673 24.3184 91.3399 24.2348 91.1775 24.3091C91.0151 24.3833 90.9362 24.5829 90.9594 24.7592L90.9455 24.7917Z" fill="#E5F6FF"/>
<path id="Vector_79" d="M92.7738 22.3879C92.7042 22.2812 92.5232 22.3415 92.4583 22.4529C92.3933 22.5642 92.3887 22.6988 92.333 22.8148C92.2773 22.9355 92.1659 23.0283 92.0406 23.0608C91.9664 23.0793 91.8782 23.0793 91.8272 23.0236C91.79 22.9865 91.7761 22.9355 91.7668 22.8844C91.7158 22.6385 91.6926 22.374 91.7808 22.1373C91.8643 21.9006 92.0824 21.6965 92.333 21.6918C92.5093 21.6872 92.681 21.7846 92.7692 21.9378C92.8573 22.0909 92.8573 22.2858 92.7692 22.4389L92.7738 22.3879Z" fill="#E5F6FF"/>
<path id="Vector_80" d="M84.871 24.7359C84.9917 24.8519 85.1123 24.9772 85.2701 25.0376C85.4279 25.0979 85.6228 25.084 85.7342 24.9587C85.7898 24.8983 85.8177 24.8148 85.8223 24.7313C85.8363 24.4807 85.6089 24.244 85.3583 24.244C85.1077 24.244 84.885 24.4853 84.8989 24.7359H84.871Z" fill="#E5F6FF"/>
<path id="Vector_81" d="M87.131 27.7105C87.298 27.975 87.595 28.1513 87.9059 28.1745C87.9291 28.0353 87.9477 27.8915 87.9152 27.7569C87.8827 27.6223 87.776 27.4924 87.6368 27.4738C87.4465 27.4506 87.298 27.627 87.1913 27.7847C87.182 27.7337 87.1727 27.6826 87.1634 27.627L87.131 27.7105Z" fill="#E5F6FF"/>
<path id="Vector_82" d="M90.2634 20.6942C90.3006 20.5271 90.1474 20.3879 90.0036 20.2951C89.8597 20.2023 89.6927 20.0909 89.6927 19.9192C89.6927 19.8728 89.7066 19.8218 89.7483 19.7986C89.8458 19.729 89.9572 19.8542 90.0639 19.9099C90.1474 19.9563 90.2495 19.9563 90.3377 19.9842C90.5558 20.0445 90.7275 20.2533 90.7414 20.4807C90.695 20.5921 90.5743 20.671 90.4537 20.671C90.333 20.671 90.2124 20.5921 90.166 20.4807L90.2634 20.6942Z" fill="#E5F6FF"/>
<path id="Vector_83" d="M79.9157 28.6855C79.939 28.625 79.9668 28.5646 79.9901 28.5042C79.9204 28.4251 79.7902 28.3972 79.6972 28.453C79.6042 28.5088 79.5763 28.6483 79.6461 28.7319C79.7158 28.8156 79.8692 28.8017 79.9157 28.7087V28.6855Z" fill="#E5F6FF"/>
<path id="Vector_84" d="M89.3491 24.8526C89.4142 24.8758 89.4746 24.9037 89.5397 24.927C89.5908 24.834 89.642 24.7317 89.6187 24.6294C89.5955 24.5272 89.4467 24.4574 89.3816 24.5411C89.3584 24.5736 89.3491 24.6155 89.3491 24.6527C89.3351 24.7782 89.3212 24.9037 89.3073 25.0292L89.3491 24.8526Z" fill="#E5F6FF"/>
</g>
<g id="Group_4">
<path id="Vector_85" d="M53.622 73.7349C52.7449 73.0388 51.7054 72.5469 50.6103 72.3102C50.4339 72.2731 50.2483 72.2406 50.072 72.2777C49.7286 72.352 49.4919 72.6675 49.3759 72.997C49.0928 73.8045 49.413 74.7604 50.072 75.2987C50.7356 75.8416 51.6776 75.9762 52.499 75.7256C52.9491 75.591 53.3853 75.3265 53.6034 74.9089C53.8215 74.4913 53.7519 73.9112 53.3667 73.642C53.2229 73.6792 53.1718 73.9019 53.2832 73.9994L53.622 73.7349Z" fill="white"/>
<path id="Vector_86" d="M50.2159 74.301C50.1045 73.8555 49.7518 73.4797 49.311 73.3451C48.9815 73.6653 48.7541 74.1247 48.833 74.5748C48.9119 75.0249 49.3806 75.4101 49.8215 75.2941C50.2623 75.1781 50.434 74.4774 50.0442 74.2361L50.2159 74.301Z" fill="white"/>
<path id="Vector_87" d="M46.546 72.4598C46.625 72.2599 46.6018 72.0275 46.4856 71.8462C46.4019 71.888 46.3136 71.9345 46.2531 72.0089C46.1927 72.0833 46.1648 72.1902 46.2113 72.2739C46.2764 72.3901 46.4344 72.3994 46.5646 72.3947C46.5414 72.4226 46.5135 72.4459 46.4902 72.4738L46.546 72.4598Z" fill="white"/>
<path id="Vector_88" d="M47.3573 72.6815C47.4176 72.7 47.4733 72.7418 47.5104 72.7928C47.3619 72.8671 47.1856 72.8021 47.0371 72.7279C46.9536 72.6861 46.8607 72.6211 46.87 72.5283C46.8747 72.4634 46.9304 72.4169 46.9628 72.3613C47.0232 72.2453 46.9907 72.0643 47.1113 72.0225C47.1809 71.9993 47.2552 72.0457 47.2923 72.1107C47.3248 72.1756 47.3248 72.2499 47.3248 72.3241C47.3248 72.4819 47.3248 72.6443 47.3248 72.8021L47.3573 72.6815Z" fill="white"/>
<path id="Vector_89" opacity="0.5" d="M37.2509 68.9229C37.1951 68.802 36.9859 68.8764 36.958 69.0065C36.9348 69.1367 37.0231 69.2622 37.1021 69.3691C37.2649 69.2762 37.3578 69.0809 37.3253 68.8996L37.2509 68.9229Z" fill="white"/>
<path id="Vector_90" d="M35.0746 73.1784C35.0932 73.2388 35.0467 73.3039 34.9863 73.3225C34.9259 73.3411 34.8608 73.3178 34.805 73.2807C34.7725 73.2621 34.7446 73.2342 34.726 73.2016C34.6888 73.1272 34.7306 73.0203 34.8097 72.9878C34.8887 72.9599 34.991 73.0064 35.0189 73.0854C35.0514 73.1644 35.0096 73.2667 34.9305 73.3039L35.0746 73.1784Z" fill="white"/>
<path id="Vector_91" d="M44.7775 73.392C44.9123 73.4013 45.01 73.22 44.9309 73.1084C44.8612 73.1084 44.7868 73.1177 44.731 73.1596C44.6753 73.2014 44.6427 73.2804 44.6706 73.3455C44.6985 73.4106 44.8008 73.4292 44.8426 73.3734L44.7775 73.392Z" fill="white"/>
<path id="Vector_92" d="M47.7759 73.1881C47.8782 73.0626 47.92 72.8906 47.8828 72.7325C47.7573 72.7744 47.6318 72.8115 47.5063 72.8534C47.4458 72.872 47.3854 72.8952 47.3436 72.9417C47.2645 73.03 47.3064 73.1927 47.4133 73.2532C47.5202 73.3136 47.6597 73.2764 47.748 73.1927L47.7759 73.1881Z" fill="white"/>
<path id="Vector_93" opacity="0.5" d="M36.8696 72.7835C36.8279 72.7928 36.7816 72.8067 36.7399 72.8159C36.726 72.8854 36.7631 72.9687 36.8325 72.9965C36.902 73.0243 36.9899 72.9826 37.0085 72.9132C37.027 72.8437 36.9575 72.7604 36.8881 72.7743L36.8696 72.7835Z" fill="white"/>
<path id="Vector_94" d="M45.7146 73.1501C45.6868 73.2337 45.7889 73.3079 45.8771 73.2986C45.9652 73.2894 46.0395 73.2383 46.1276 73.2198C46.2158 73.2012 46.3086 73.2244 46.3829 73.2801C46.4246 73.3126 46.4571 73.3636 46.4478 73.4147C46.4432 73.4471 46.42 73.4796 46.3968 73.5028C46.2808 73.6281 46.1462 73.7488 45.9838 73.7952C45.8167 73.8416 45.6218 73.8045 45.5151 73.6699C45.4409 73.5771 45.4269 73.4425 45.4733 73.3311C45.5197 73.2198 45.6311 73.1409 45.7471 73.127L45.7146 73.1501Z" fill="white"/>
<path id="Vector_95" d="M47.0289 71.2296C47.094 71.1412 47.0568 71.0064 46.9638 70.946C46.8755 70.8856 46.75 70.8949 46.6523 70.946C46.6105 70.9692 46.5686 71.0157 46.5872 71.0576C46.5965 71.0901 46.6337 71.1041 46.6616 71.118C46.7871 71.1691 46.908 71.2203 47.0335 71.2668L47.0289 71.2296Z" fill="white"/>
<path id="Vector_96" d="M42.0867 69.9533C42.0635 70.1718 41.7845 70.3206 41.5893 70.2137C41.6311 70.0463 41.6776 69.8697 41.8078 69.7581C41.9333 69.6419 42.1657 69.6279 42.2587 69.7767C42.2448 69.8743 42.2262 69.9766 42.2122 70.0742L42.0867 69.9533Z" fill="white"/>
<path id="Vector_97" d="M57.9754 76.4869C58.0265 76.4916 58.0544 76.552 58.0404 76.6031C58.0265 76.6496 57.9893 76.6868 57.9475 76.7147C57.9149 76.7379 57.8777 76.7612 57.8359 76.7658C57.7569 76.7751 57.6778 76.7194 57.6499 76.6403C57.6267 76.5659 57.65 76.4776 57.7104 76.4172C57.7383 76.3893 57.7755 76.366 57.8127 76.366C57.8499 76.366 57.8917 76.3986 57.8917 76.4358L57.9754 76.4869Z" fill="white"/>
<path id="Vector_98" d="M44.077 72.3894C44.0677 72.3429 44.0538 72.3011 44.0445 72.2546C43.9748 72.2639 43.8957 72.2779 43.8493 72.329C43.8028 72.3848 43.826 72.4917 43.8957 72.4964C43.9236 72.4964 43.9469 72.4824 43.9701 72.4685C44.0445 72.4266 44.1189 72.3848 44.1933 72.3383L44.077 72.3894Z" fill="white"/>
<path id="Vector_99" d="M41.6369 71.9535C41.5811 71.8513 41.5253 71.749 41.437 71.6792C41.3487 71.6095 41.2139 71.577 41.1162 71.6374C41.0697 71.6653 41.0326 71.7164 41.014 71.7676C40.9535 71.9303 41.0558 72.1302 41.2185 72.1767C41.3812 72.2278 41.5765 72.1162 41.6183 71.9489L41.6369 71.9535Z" fill="white"/>
<path id="Vector_100" d="M41.0376 70.909C40.9679 70.8718 40.9028 70.8346 40.833 70.7974C40.7912 70.8392 40.7633 70.895 40.7447 70.9508C40.8191 71.0391 40.9679 71.0484 41.0515 70.9694L41.0376 70.909Z" fill="white"/>
<path id="Vector_101" d="M47.557 67.4377C47.1208 67.331 46.6613 67.3264 46.2251 67.4238C46.1555 67.4377 46.0813 67.4609 46.0256 67.5027C45.9142 67.5862 45.8817 67.744 45.891 67.8832C45.9235 68.222 46.2019 68.519 46.5314 68.6025C46.8609 68.686 47.2275 68.5793 47.4827 68.3519C47.6219 68.2266 47.7379 68.0596 47.7472 67.8693C47.7565 67.6837 47.6358 67.4795 47.4502 67.447C47.4038 67.4841 47.4224 67.5723 47.4781 67.5909L47.557 67.4377Z" fill="white"/>
<path id="Vector_102" d="M47.7898 76.7009C47.734 76.4964 47.576 76.3197 47.3761 76.2453C47.3342 76.3337 47.2924 76.422 47.2877 76.515C47.2831 76.6126 47.3249 76.7149 47.4133 76.7567C47.5341 76.8125 47.6643 76.7242 47.7666 76.6451C47.7619 76.6823 47.7573 76.7149 47.7526 76.7521L47.7898 76.7009Z" fill="white"/>
<path id="Vector_103" d="M46.2483 76.7418C46.2066 76.6954 46.1648 76.649 46.1045 76.6398C46.0488 76.6305 45.9931 76.6537 45.9374 76.6815C45.7936 76.7465 45.6451 76.7975 45.4919 76.8393C45.7286 76.9553 45.9653 77.0713 46.2019 77.1827C46.2205 77.192 46.2391 77.2013 46.253 77.2152C46.2994 77.2709 46.253 77.3544 46.2623 77.4286C46.2762 77.5354 46.4061 77.5771 46.5128 77.5864C47.2692 77.6328 46.4664 76.9832 46.2483 76.7418Z" fill="white"/>
<path id="Vector_104" d="M49.2088 76.547C49.2181 76.3846 49.1485 76.2222 49.0232 76.1201C48.9489 76.2268 48.87 76.3335 48.7958 76.4403C48.7587 76.4913 48.7215 76.547 48.7169 76.6073C48.7076 76.728 48.8376 76.8301 48.9582 76.8115C49.0789 76.7929 49.1717 76.6816 49.1902 76.5609L49.2088 76.547Z" fill="white"/>
<path id="Vector_105" d="M56.754 78.8023C56.7123 78.8115 56.666 78.8254 56.6244 78.8347C56.6105 78.9041 56.6475 78.9875 56.717 79.0152C56.7864 79.043 56.8744 79.0014 56.8929 78.9319C56.9114 78.8625 56.842 78.7791 56.7725 78.793L56.754 78.8023Z" fill="white"/>
<path id="Vector_106" d="M47.4372 75.429C47.4372 75.322 47.3256 75.2337 47.214 75.2384C47.1071 75.243 47.0095 75.3267 46.9677 75.4243C46.9491 75.4662 46.9398 75.5312 46.9816 75.5545C47.0095 75.5731 47.0467 75.5638 47.0792 75.5545C47.2094 75.5219 47.3396 75.4848 47.4697 75.4522L47.4372 75.429Z" fill="white"/>
<path id="Vector_107" d="M48.63 73.9721C48.5742 73.8699 48.5184 73.7676 48.4301 73.6978C48.3418 73.6281 48.207 73.5956 48.1093 73.656C48.0628 73.6839 48.0257 73.735 48.0071 73.7862C47.9466 73.9489 48.0489 74.1488 48.2116 74.1953C48.3743 74.2464 48.5696 74.1348 48.6114 73.9675L48.63 73.9721Z" fill="white"/>
<path id="Vector_108" d="M44.2993 70.1571C44.1833 70.1663 44.1229 70.2963 44.0905 70.4076C44.058 70.519 44.0162 70.6489 43.9095 70.6861C43.877 70.6953 43.8445 70.6954 43.8167 70.6768C43.7517 70.6257 43.812 70.5283 43.826 70.4494C43.8399 70.3844 43.8213 70.3195 43.8213 70.2545C43.8167 70.1014 43.9188 69.9482 44.0626 69.8925C44.1461 69.9018 44.2204 69.9622 44.2436 70.041C44.2668 70.1199 44.239 70.2127 44.1786 70.2684L44.2993 70.1571Z" fill="white"/>
<path id="Vector_109" d="M41.5985 71.1177C41.4825 71.127 41.4222 71.2569 41.3897 71.3683C41.3572 71.4796 41.3155 71.6096 41.2087 71.6467C41.1763 71.656 41.1438 71.656 41.1159 71.6374C41.051 71.5864 41.1113 71.4889 41.1252 71.41C41.1391 71.3451 41.1206 71.2801 41.1206 71.2151C41.1159 71.062 41.218 70.9089 41.3619 70.8532C41.4454 70.8624 41.5197 70.9228 41.5429 71.0017C41.5661 71.0806 41.5382 71.1734 41.4779 71.229L41.5985 71.1177Z" fill="white"/>
<path id="Vector_110" d="M39.7337 70.0737C39.6593 70.0179 39.571 69.9807 39.478 69.9621C39.464 69.9575 39.4455 69.9575 39.4315 69.9621C39.4036 69.9714 39.385 69.9947 39.3757 70.0226C39.3525 70.0923 39.385 70.1713 39.4408 70.2132C39.4966 70.255 39.5803 70.2643 39.6453 70.2411C39.6825 70.2271 39.7197 70.2039 39.7383 70.1713C39.7569 70.1341 39.7476 70.0877 39.7151 70.0644C39.7011 70.0691 39.7011 70.0877 39.7104 70.097L39.7337 70.0737Z" fill="white"/>
<path id="Vector_111" d="M52.2773 75.4062C52.2215 75.2017 52.0635 75.025 51.8636 74.9506C51.8217 75.0389 51.7799 75.1273 51.7753 75.2203C51.7706 75.3179 51.8124 75.4202 51.9008 75.462C52.0216 75.5178 52.1518 75.4294 52.2541 75.3504C52.2494 75.3876 52.2448 75.4201 52.2401 75.4573L52.2773 75.4062Z" fill="white"/>
<path id="Vector_112" d="M51.4227 77.2111C51.5343 77.1367 51.5064 76.9322 51.3763 76.8904C51.3205 76.9322 51.2693 76.9833 51.2507 77.0531C51.2321 77.1181 51.2507 77.2018 51.3158 77.2344C51.3762 77.2669 51.4692 77.2251 51.4692 77.1553L51.4227 77.2111Z" fill="white"/>
<path id="Vector_113" d="M48.9911 74.6171C49.1027 74.5427 49.0748 74.3382 48.9446 74.2963C48.8888 74.3382 48.8377 74.3893 48.8191 74.4591C48.8005 74.5241 48.8191 74.6078 48.8842 74.6404C48.9446 74.6729 49.0376 74.6311 49.0376 74.5613L48.9911 74.6171Z" fill="white"/>
<path id="Vector_114" d="M52.0303 76.4541C52.0581 76.5377 52.1834 76.533 52.2484 76.4773C52.3134 76.417 52.3412 76.3288 52.4015 76.2639C52.4618 76.1989 52.55 76.1571 52.6428 76.1618C52.6939 76.1618 52.7542 76.1803 52.7774 76.2314C52.7913 76.2639 52.7913 76.301 52.7867 76.3335C52.7728 76.5052 52.731 76.6815 52.6289 76.8161C52.5268 76.9553 52.3458 77.0435 52.1788 76.9971C52.0628 76.9646 51.97 76.8671 51.9421 76.7511C51.9143 76.6351 51.956 76.5052 52.0442 76.4263L52.0303 76.4541Z" fill="white"/>
<path id="Vector_115" d="M43.4873 71.0063C43.5151 71.0898 43.6404 71.0851 43.7053 71.0295C43.7703 70.9691 43.7982 70.881 43.8585 70.816C43.9188 70.751 44.007 70.7093 44.0998 70.7139C44.1508 70.7139 44.2112 70.7371 44.2344 70.7835C44.2483 70.816 44.2483 70.8531 44.2436 70.8856C44.2297 71.0573 44.188 71.2336 44.0859 71.3682C43.9838 71.5074 43.8028 71.5956 43.6357 71.5492C43.5197 71.5167 43.4269 71.4193 43.3991 71.3032C43.3712 71.1872 43.413 71.0573 43.5012 70.9784L43.4873 71.0063Z" fill="white"/>
<path id="Vector_116" d="M43.9373 69.9761C43.9652 70.0597 44.0905 70.055 44.1554 69.9993C44.2204 69.939 44.2482 69.8508 44.3086 69.7859C44.3689 69.7209 44.4571 69.6791 44.5499 69.6838C44.6009 69.6838 44.6612 69.707 44.6844 69.7534C44.6984 69.7859 44.6984 69.823 44.6937 69.8555C44.6798 70.0272 44.638 70.2035 44.5359 70.3381C44.4339 70.4773 44.2529 70.5655 44.0858 70.5191C43.9698 70.4866 43.877 70.3891 43.8492 70.2731C43.8213 70.1571 43.8631 70.0272 43.9512 69.9483L43.9373 69.9761Z" fill="white"/>
<path id="Vector_117" d="M45.3527 70.983C45.3805 71.0666 45.5058 71.0619 45.5708 71.0062C45.6358 70.9459 45.6636 70.8577 45.7239 70.7928C45.7843 70.7278 45.8724 70.686 45.9652 70.6907C46.0163 70.6907 46.0766 70.7139 46.0998 70.7603C46.1137 70.7928 46.1137 70.8299 46.1091 70.8624C46.0952 71.0341 46.0534 71.2104 45.9513 71.345C45.8492 71.4842 45.6683 71.5724 45.5012 71.526C45.3852 71.4935 45.2924 71.396 45.2645 71.28C45.2367 71.164 45.2785 71.0341 45.3666 70.9552L45.3527 70.983Z" fill="white"/>
<path id="Vector_118" d="M36.3826 79.2292C36.4105 79.3127 36.5357 79.3081 36.6007 79.2524C36.6657 79.1921 36.6935 79.1039 36.7538 79.0389C36.8142 78.974 36.9023 78.9322 36.9952 78.9368C37.0462 78.9368 37.1065 78.9601 37.1297 79.0065C37.1436 79.0389 37.1436 79.0761 37.139 79.1085C37.1251 79.2802 37.0833 79.4566 36.9812 79.5912C36.8791 79.7304 36.6982 79.8185 36.5311 79.7721C36.4151 79.7396 36.3223 79.6422 36.2944 79.5262C36.2666 79.4102 36.3084 79.2802 36.3965 79.2014L36.3826 79.2292Z" fill="white"/>
<path id="Vector_119" d="M50.2629 76.8256C50.2257 76.7977 50.1885 76.7651 50.1559 76.7372C50.1048 76.7884 50.049 76.8441 50.0444 76.9139C50.0397 76.9836 50.1234 77.058 50.1838 77.0208C50.2071 77.0069 50.2164 76.979 50.2303 76.9557C50.2629 76.8767 50.3001 76.7977 50.3326 76.7186L50.2629 76.8256Z" fill="white"/>
<path id="Vector_120" d="M41.1309 76.1486C41.0752 76.0463 41.0194 75.944 40.931 75.8743C40.8427 75.8046 40.7079 75.772 40.6103 75.8324C40.5638 75.8603 40.5266 75.9115 40.508 75.9626C40.4476 76.1253 40.5498 76.3252 40.7126 76.3717C40.8753 76.4228 41.0705 76.3113 41.1123 76.1439L41.1309 76.1486Z" fill="white"/>
<path id="Vector_121" d="M50.2627 73.3079C50.4161 73.3684 50.4347 73.6194 50.2953 73.7031C50.2069 73.6938 50.1186 73.6659 50.0396 73.624C50.0628 73.5264 50.1233 73.4381 50.2069 73.3823L50.2627 73.3079Z" fill="white"/>
<path id="Vector_122" opacity="0.5" d="M40.2806 74.9646C40.2388 74.9135 40.1971 74.8625 40.1367 74.83C40.0764 74.7975 40.0022 74.7975 39.9511 74.8393C39.8722 74.9135 39.9186 75.0481 39.8815 75.1502C39.8444 75.2523 39.7191 75.3172 39.7191 75.424C39.7191 75.5307 39.849 75.6003 39.9558 75.5725C40.0578 75.5446 40.1321 75.4565 40.1971 75.3729C40.2527 75.294 40.3038 75.2105 40.3131 75.1131C40.3177 75.0156 40.2667 74.9135 40.1692 74.895L40.2806 74.9646Z" fill="white"/>
<path id="Vector_123" d="M45.5522 72.3473C45.7331 71.9251 45.6728 71.41 45.399 71.0387C44.9443 71.0944 44.4849 71.3264 44.2807 71.7348C44.0765 72.1432 44.2203 72.7279 44.6426 72.8996C45.0649 73.0713 45.6264 72.6119 45.4547 72.1849L45.5522 72.3473Z" fill="white"/>
<path id="Vector_124" d="M50.7361 72.3619C50.7176 72.4223 50.6385 72.4455 50.5781 72.4223C50.5177 72.3991 50.4805 72.3433 50.4572 72.2828C50.4433 72.2503 50.4386 72.2085 50.4433 72.1759C50.4572 72.0922 50.5548 72.0318 50.6385 72.055C50.7222 72.0783 50.7733 72.1759 50.7501 72.2596C50.7269 72.3433 50.6339 72.3991 50.5502 72.3851L50.7361 72.3619Z" fill="white"/>
<path id="Vector_125" d="M48.2158 72.3799C48.1091 72.4263 48.0952 72.5701 48.0998 72.6815C48.1091 72.7975 48.1137 72.9367 48.0209 73.0017C47.9977 73.0202 47.9606 73.0295 47.9328 73.0202C47.8539 72.9924 47.8771 72.881 47.8678 72.8021C47.8585 72.7372 47.8214 72.6815 47.7982 72.6212C47.7425 72.4773 47.7889 72.301 47.9096 72.1989C47.9885 72.1803 48.0813 72.2128 48.1277 72.2824C48.1787 72.3474 48.1834 72.4448 48.1416 72.5191L48.2158 72.3799Z" fill="white"/>
<path id="Vector_126" d="M44.8047 73.7858C44.763 73.7673 44.7214 73.7534 44.6797 73.7349C44.6241 73.7812 44.6056 73.8691 44.6427 73.9339C44.6797 73.9941 44.7769 74.0173 44.8325 73.971C44.888 73.9247 44.8834 73.8182 44.8186 73.7858H44.8047Z" fill="white"/>
<path id="Vector_127" d="M47.3487 73.6657C47.3859 73.6982 47.3719 73.7679 47.3348 73.7958C47.2976 73.8284 47.2418 73.833 47.1906 73.8284C47.1488 73.8284 47.107 73.8237 47.0744 73.8005C47.0047 73.7633 46.9722 73.6657 47 73.5913C47.0279 73.5169 47.1023 73.4611 47.1813 73.4472C47.2185 73.4425 47.265 73.4472 47.2929 73.4704C47.3255 73.4937 47.3394 73.5448 47.3162 73.5727L47.3487 73.6657Z" fill="white"/>
<path id="Vector_128" d="M46.7076 77.4472C47.1206 77.2431 47.413 76.8161 47.4501 76.3567C47.0696 76.1015 46.5684 75.9762 46.1461 76.1525C45.7238 76.3289 45.4501 76.8625 45.6589 77.2709C45.8677 77.6793 46.5916 77.6978 46.7401 77.2616L46.7076 77.4472Z" fill="white"/>
<path id="Vector_129" d="M50.0632 76.1573C50.0074 76.0364 49.7982 76.1108 49.7704 76.241C49.7471 76.3711 49.8354 76.4966 49.9145 76.6036C50.0772 76.5106 50.1701 76.3153 50.1376 76.134L50.0632 76.1573Z" fill="white"/>
<path id="Vector_130" d="M49.6726 71.2985C49.6309 71.28 49.5892 71.2661 49.5476 71.2476C49.492 71.2939 49.4735 71.3818 49.5105 71.4466C49.5475 71.5068 49.6448 71.53 49.7003 71.4837C49.7559 71.4374 49.7513 71.3309 49.6864 71.2985H49.6726Z" fill="white"/>
<path id="Vector_131" d="M48.3736 73.359C48.0024 73.0434 47.5569 72.8207 47.0882 72.7047C47.014 72.6861 46.9351 72.6722 46.8562 72.6861C46.7077 72.7139 46.601 72.8485 46.5453 72.9877C46.4107 73.3358 46.5407 73.7534 46.8191 73.9947C47.0975 74.236 47.5059 74.3103 47.8632 74.2128C48.0581 74.1571 48.253 74.0504 48.3504 73.8741C48.4479 73.6977 48.4293 73.4425 48.2669 73.3218C48.2019 73.3358 48.1787 73.4332 48.2251 73.475L48.3736 73.359Z" fill="white"/>
<path id="Vector_132" d="M42.8701 79.1828C42.7588 78.7373 42.4061 78.3615 41.9652 78.2269C41.6358 78.5471 41.4084 79.0065 41.4873 79.4566C41.5662 79.9067 42.0348 80.2919 42.4757 80.1759C42.9165 80.0599 43.0882 79.3592 42.6984 79.1179L42.8701 79.1828Z" fill="white"/>
<path id="Vector_133" d="M40.0819 70.9838C40.0262 70.7793 39.8681 70.6026 39.6682 70.5283C39.6264 70.6166 39.5845 70.7049 39.5799 70.7979C39.5752 70.8955 39.6171 70.9978 39.7054 71.0396C39.8263 71.0954 39.9564 71.0071 40.0587 70.9281C40.0541 70.9652 40.0494 70.9978 40.0448 71.035L40.0819 70.9838Z" fill="white"/>
<path id="Vector_134" d="M38.5405 71.0203C38.4988 70.9739 38.457 70.9275 38.3967 70.9182C38.341 70.9089 38.2853 70.9321 38.2296 70.9599C38.0858 71.0249 37.9373 71.076 37.7841 71.1177C38.0208 71.2337 38.2574 71.3497 38.4941 71.4611C38.5127 71.4704 38.5312 71.4797 38.5452 71.4936C38.5916 71.5493 38.5452 71.6328 38.5544 71.7071C38.5684 71.8138 38.6983 71.8556 38.805 71.8648C39.5661 71.9159 38.7586 71.2662 38.5405 71.0203Z" fill="white"/>
<path id="Vector_135" d="M47.8126 72.0506C47.7429 72.0134 47.6778 71.9762 47.608 71.939C47.543 72.0785 47.5476 72.2645 47.6638 72.3667C47.7801 72.469 48.0078 72.4086 48.0218 72.2552C48.0311 72.1622 48.0032 72.0088 48.1008 72.0181L47.8126 72.0506Z" fill="white"/>
<path id="Vector_136" d="M41.297 73.2662C41.3573 73.2848 41.413 73.3265 41.4501 73.3776C41.3016 73.4518 41.1253 73.3869 40.9768 73.3126C40.8933 73.2708 40.8005 73.2059 40.8098 73.1131C40.8144 73.0481 40.8701 73.0017 40.9026 72.946C40.9629 72.83 40.9304 72.649 41.0511 72.6073C41.1207 72.5841 41.1949 72.6305 41.232 72.6954C41.2645 72.7604 41.2645 72.8346 41.2645 72.9089C41.2645 73.0667 41.2645 73.2291 41.2645 73.3869L41.297 73.2662Z" fill="white"/>
<path id="Vector_137" d="M40.4342 75.633C40.3784 75.5121 40.1692 75.5865 40.1414 75.7167C40.1181 75.8468 40.2064 75.9723 40.2855 76.0793C40.4482 75.9863 40.5411 75.791 40.5086 75.6051L40.4342 75.633Z" fill="white"/>
<path id="Vector_138" opacity="0.5" d="M38.6432 73.4058C38.6618 73.4663 38.6153 73.5313 38.5548 73.5499C38.4944 73.5685 38.4293 73.5453 38.3782 73.5081C38.3456 73.4895 38.3178 73.4616 38.2992 73.4291C38.262 73.3547 38.3038 73.2478 38.3828 73.2152C38.4619 73.1873 38.5641 73.2338 38.592 73.3128C38.6246 73.3919 38.5827 73.4942 38.5037 73.5313L38.6432 73.4058Z" fill="white"/>
<path id="Vector_139" d="M39.2229 72.7888C39.3345 72.7145 39.3066 72.5099 39.1764 72.4681C39.1206 72.5099 39.0695 72.5611 39.0509 72.6308C39.0323 72.6959 39.0509 72.7795 39.116 72.8121C39.1764 72.8446 39.2694 72.8028 39.2694 72.7331L39.2229 72.7888Z" fill="white"/>
<path id="Vector_140" d="M41.5011 70.8299C41.5104 70.6675 41.4408 70.5051 41.3155 70.403C41.2413 70.5097 41.1624 70.6164 41.0881 70.7232C41.051 70.7742 41.0139 70.8299 41.0093 70.8902C41 71.0109 41.1299 71.113 41.2506 71.0944C41.3712 71.0759 41.464 70.9645 41.4826 70.8438L41.5011 70.8299Z" fill="white"/>
<path id="Vector_141" opacity="0.5" d="M38.815 75.2756C38.8382 75.3639 38.8057 75.4662 38.736 75.5266C38.6616 75.5871 38.5547 75.5964 38.4756 75.5499C38.4199 75.522 38.3734 75.4429 38.4152 75.3918C38.4292 75.3686 38.457 75.3593 38.4849 75.35C38.5965 75.3081 38.7034 75.2663 38.815 75.2244C38.8197 75.243 38.8243 75.2663 38.8289 75.2849L38.815 75.2756Z" fill="white"/>
<path id="Vector_142" opacity="0.5" d="M37.4407 76.4867C37.3247 76.496 37.2643 76.6259 37.2318 76.7373C37.1994 76.8487 37.1576 76.9786 37.0509 77.0157C37.0184 77.025 36.9859 77.025 36.9581 77.0065C36.8931 76.9554 36.9534 76.858 36.9673 76.7791C36.9813 76.7141 36.9627 76.6491 36.9627 76.5842C36.9581 76.431 37.0602 76.2779 37.204 76.2222C37.2875 76.2315 37.3618 76.2918 37.385 76.3707C37.4082 76.4496 37.3803 76.5424 37.32 76.5981L37.4407 76.4867Z" fill="white"/>
<path id="Vector_143" opacity="0.5" d="M45.0557 69.2429C44.9396 69.2521 44.8793 69.3821 44.8468 69.4935C44.8144 69.6048 44.7726 69.7348 44.6659 69.7719C44.6334 69.7812 44.6009 69.7812 44.5731 69.7626C44.5081 69.7116 44.5684 69.6141 44.5823 69.5352C44.5963 69.4703 44.5777 69.4053 44.5777 69.3403C44.5731 69.1872 44.6751 69.034 44.819 68.9784C44.9025 68.9876 44.9768 69.048 45 69.1269C45.0232 69.2057 44.9953 69.2986 44.935 69.3542L45.0557 69.2429Z" fill="white"/>
<path id="Vector_144" opacity="0.5" d="M36.6884 75.6048C36.656 75.577 36.6236 75.5446 36.5912 75.5168C36.5217 75.5446 36.4754 75.6187 36.494 75.6928C36.5079 75.7622 36.5912 75.8178 36.6606 75.79C36.7301 75.7668 36.7579 75.665 36.7069 75.6094L36.6884 75.6048Z" fill="white"/>
<path id="Vector_145" d="M39.8305 72.0318C39.8583 72.1153 39.9836 72.1107 40.0486 72.055C40.1136 71.9946 40.1414 71.9065 40.2017 71.8415C40.262 71.7766 40.3502 71.7348 40.443 71.7394C40.4941 71.7394 40.5544 71.7626 40.5776 71.809C40.5915 71.8415 40.5915 71.8786 40.5869 71.9111C40.573 72.0828 40.5312 72.2592 40.4291 72.3937C40.327 72.5329 40.146 72.6211 39.979 72.5747C39.863 72.5422 39.7702 72.4448 39.7423 72.3288C39.7145 72.2128 39.7562 72.0828 39.8444 72.0039L39.8305 72.0318Z" fill="white"/>
<path id="Vector_146" d="M39.7339 69.7119C39.7339 69.605 39.6223 69.5167 39.5108 69.5213C39.4038 69.526 39.3062 69.6096 39.2644 69.7073C39.2458 69.7491 39.2365 69.8142 39.2783 69.8374C39.3062 69.856 39.3434 69.8467 39.376 69.8374C39.5061 69.8049 39.6363 69.7677 39.7665 69.7351L39.7339 69.7119Z" fill="white"/>
<path id="Vector_147" d="M42.2584 75.1461C42.2351 75.3646 41.9562 75.5133 41.761 75.4064C41.8028 75.239 41.8493 75.0624 41.9795 74.9508C42.105 74.8346 42.3374 74.8207 42.4304 74.9694C42.4164 75.067 42.3978 75.1693 42.3839 75.2669L42.2584 75.1461Z" fill="white"/>
<path id="Vector_148" opacity="0.5" d="M38.0629 72.4032C38.0258 72.3753 37.9886 72.3428 37.956 72.3149C37.9049 72.366 37.8491 72.4218 37.8445 72.4915C37.8398 72.5612 37.9235 72.6356 37.9839 72.5984C38.0072 72.5845 38.0165 72.5566 38.0304 72.5334C38.0629 72.4543 38.1001 72.3753 38.1327 72.2963L38.0629 72.4032Z" fill="white"/>
<path id="Vector_149" d="M50.1706 74.3758C50.1148 74.2735 50.059 74.1713 49.9707 74.1015C49.8823 74.0318 49.7475 73.9993 49.6499 74.0597C49.6034 74.0876 49.5662 74.1387 49.5476 74.1899C49.4872 74.3526 49.5895 74.5525 49.7522 74.599C49.9149 74.6501 50.1101 74.5385 50.152 74.3712L50.1706 74.3758Z" fill="white"/>
<path id="Vector_150" d="M44.2256 77.6145C44.1559 77.5773 44.0908 77.5401 44.021 77.5029C43.9792 77.5448 43.9513 77.6005 43.9327 77.6563C44.0071 77.7447 44.1559 77.7539 44.2395 77.6749L44.2256 77.6145Z" fill="white"/>
<path id="Vector_151" d="M55.6228 76.9233C55.6414 76.9837 55.5949 77.0488 55.5344 77.0674C55.474 77.086 55.4089 77.0627 55.3531 77.0256C55.3206 77.007 55.2927 76.9791 55.2741 76.9465C55.2369 76.8721 55.2788 76.7652 55.3578 76.7327C55.4368 76.7048 55.5391 76.7513 55.567 76.8303C55.5995 76.9093 55.5577 77.0116 55.4787 77.0488L55.6228 76.9233Z" fill="white"/>
<path id="Vector_152" d="M43.4227 75.8697C43.353 75.8325 43.2879 75.7953 43.2182 75.7581C43.1763 75.8 43.1484 75.8557 43.1299 75.9115C43.2042 75.9999 43.353 76.0092 43.4367 75.9301L43.4227 75.8697Z" fill="white"/>
<path id="Vector_153" d="M46.2622 70.1756C46.2622 70.0874 46.1369 70.0549 46.058 70.092C45.9791 70.1292 45.9234 70.2034 45.8492 70.2498C45.7703 70.2962 45.6729 70.3055 45.5893 70.2777C45.5383 70.2591 45.4919 70.2266 45.4826 70.1756C45.478 70.1431 45.4872 70.106 45.5012 70.0735C45.5661 69.9157 45.6543 69.7579 45.7935 69.6558C45.9327 69.5537 46.1323 69.5213 46.2761 69.6141C46.3782 69.679 46.4385 69.7997 46.4293 69.9204C46.42 70.041 46.3457 70.1524 46.239 70.2034L46.2622 70.1756Z" fill="white"/>
<path id="Vector_154" d="M47.9978 74.4634C48.021 74.5237 48.0489 74.5887 48.0953 74.6351C48.1417 74.6815 48.2159 74.7047 48.2763 74.6769C48.3737 74.6305 48.3691 74.4866 48.434 74.4031C48.499 74.3149 48.6382 74.2917 48.6707 74.1896C48.7032 74.0875 48.5965 73.9855 48.4897 73.9808C48.383 73.9762 48.2855 74.0365 48.202 74.1015C48.1278 74.1571 48.0489 74.2268 48.0164 74.3149C47.9839 74.4031 48.0025 74.5191 48.086 74.5655L47.9978 74.4634Z" fill="white"/>
<path id="Vector_155" d="M43.5893 72.0829C43.9559 72.236 44.355 72.3009 44.7494 72.2731C44.8144 72.2685 44.8793 72.2638 44.935 72.2313C45.0418 72.1757 45.0928 72.0411 45.1021 71.9204C45.1206 71.6188 44.9211 71.3265 44.6427 71.2058C44.3642 71.0851 44.0301 71.1315 43.7795 71.294C43.6403 71.3821 43.5197 71.5167 43.4826 71.6791C43.4501 71.8415 43.529 72.0318 43.6867 72.0875C43.7331 72.0596 43.7285 71.9808 43.6821 71.9576L43.5893 72.0829Z" fill="white"/>
<path id="Vector_156" d="M45.4687 69.9111C45.4872 69.8554 45.5058 69.7904 45.4872 69.7348C45.4687 69.6791 45.4176 69.6466 45.3712 69.6095C45.2413 69.5167 45.1253 69.4146 45.0139 69.2986C45.0325 69.5584 45.051 69.8229 45.0649 70.0828C45.0649 70.1014 45.0696 70.1246 45.0603 70.1431C45.0371 70.2127 44.9397 70.2127 44.8793 70.2591C44.7958 70.3241 44.819 70.4587 44.8654 70.5515C45.1995 71.2429 45.3666 70.222 45.4687 69.9111Z" fill="white"/>
<path id="Vector_157" d="M43.5982 71.9852C43.5658 71.9528 43.538 71.9204 43.5056 71.888C43.4361 71.9111 43.3852 71.9852 43.3945 72.0546C43.4037 72.1287 43.4824 72.1843 43.5519 72.1658C43.6213 72.1472 43.6584 72.0454 43.6121 71.9898L43.5982 71.9852Z" fill="white"/>
<path id="Vector_158" d="M44.2163 69.9397C44.3093 69.8839 44.3279 69.7444 44.2721 69.6514C44.2117 69.5585 44.0954 69.5166 43.9885 69.5306C43.942 69.5352 43.8862 69.5585 43.8816 69.6096C43.8816 69.6421 43.9048 69.67 43.9281 69.6933C44.0211 69.7909 44.114 69.8839 44.2117 69.9815L44.2163 69.9397Z" fill="white"/>
<path id="Vector_159" d="M43.4922 71.1837C43.6409 71.0303 43.7153 70.8071 43.6828 70.5979C43.5852 70.6026 43.4875 70.6119 43.4039 70.6537C43.3202 70.6955 43.2504 70.7839 43.2597 70.8815C43.2737 71.0117 43.4132 71.086 43.534 71.1325C43.5015 71.1465 43.4689 71.1604 43.4364 71.1744L43.4922 71.1837Z" fill="white"/>
<path id="Vector_160" d="M42.6613 71.6699C42.6752 71.7348 42.6659 71.7998 42.6427 71.8601C42.5035 71.7719 42.471 71.5817 42.4664 71.4146C42.4617 71.3218 42.471 71.2104 42.5592 71.1687C42.6195 71.1408 42.6845 71.1687 42.7494 71.164C42.8794 71.1548 43.0232 71.0387 43.116 71.1269C43.1717 71.1733 43.1671 71.2661 43.1253 71.3265C43.0835 71.3868 43.0186 71.4239 42.9582 71.461C42.819 71.5399 42.6798 71.6188 42.5406 71.6977L42.6613 71.6699Z" fill="white"/>
<path id="Vector_161" d="M44.8793 70.635C45.0232 70.5608 45.1299 70.4216 45.1578 70.2638C45.0278 70.2499 44.8979 70.2406 44.7633 70.2267C44.703 70.222 44.638 70.2174 44.5823 70.2406C44.471 70.2917 44.4478 70.4541 44.522 70.5515C44.5963 70.649 44.7401 70.6722 44.8515 70.6304L44.8793 70.635Z" fill="white"/>
<path id="Vector_162" d="M43.0046 69.7811C42.9443 69.8461 43.0092 69.9528 43.0927 69.9807C43.1763 70.0085 43.2644 69.99 43.3526 70.0085C43.4408 70.0271 43.5197 70.0874 43.5614 70.1663C43.5846 70.2127 43.5986 70.273 43.5707 70.3148C43.5522 70.3426 43.5197 70.3612 43.4872 70.3751C43.3294 70.4447 43.1577 70.5004 42.9907 70.4818C42.819 70.4586 42.6519 70.3473 42.6101 70.1802C42.5823 70.0642 42.6194 69.9343 42.7076 69.8507C42.7958 69.7672 42.9257 69.7394 43.0417 69.7765L43.0046 69.7811Z" fill="white"/>
<path id="Vector_163" d="M45.7617 74.6827C45.8222 74.585 45.8826 74.4874 45.9012 74.3712C45.9198 74.2596 45.8779 74.1295 45.7803 74.0737C45.7292 74.0458 45.6687 74.0411 45.613 74.0504C45.4456 74.0783 45.3201 74.2689 45.3573 74.4363C45.3945 74.6036 45.5897 74.7152 45.7524 74.6687L45.7617 74.6827Z" fill="white"/>
<path id="Vector_164" d="M47.395 72.7335C47.5438 72.5801 47.6182 72.357 47.5856 72.1478C47.488 72.1524 47.3904 72.1617 47.3067 72.2036C47.223 72.2454 47.1533 72.3337 47.1626 72.4314C47.1765 72.5615 47.316 72.6359 47.4369 72.6824C47.4043 72.6963 47.3718 72.7103 47.3392 72.7242L47.395 72.7335Z" fill="white"/>
<path id="Vector_165" d="M42.2575 71.707C42.1415 71.707 42.0719 71.8323 42.0301 71.9391C41.993 72.0458 41.942 72.1757 41.8306 72.2036C41.7981 72.2129 41.7656 72.2082 41.7424 72.185C41.6821 72.1293 41.7471 72.0365 41.7703 71.9576C41.7888 71.8973 41.7749 71.8277 41.7795 71.7627C41.7888 71.6096 41.9002 71.4657 42.0487 71.4193C42.1322 71.4332 42.2018 71.5029 42.2204 71.5817C42.2389 71.6606 42.2065 71.7534 42.1369 71.7998L42.2575 71.707Z" fill="white"/>
<path id="Vector_166" d="M49.1343 77.3822C49.0927 77.373 49.0464 77.3683 49.0047 77.3591C48.963 77.4193 48.963 77.5072 49.014 77.5582C49.0649 77.6091 49.1621 77.6091 49.2084 77.5489C49.2547 77.4887 49.2223 77.3915 49.1529 77.373L49.1343 77.3822Z" fill="white"/>
<path id="Vector_167" d="M45.1583 71.684C45.1676 71.6375 45.1722 71.5911 45.1815 71.5446C45.1118 71.526 45.0374 71.5027 44.9723 71.5353C44.9072 71.5678 44.884 71.6747 44.9491 71.7073C44.9723 71.7212 45.0002 71.7166 45.0281 71.7119C45.1118 71.7026 45.2001 71.6933 45.2838 71.684H45.1583Z" fill="white"/>
</g>
</g>
<path id="Vector_168" opacity="0.5" d="M44.1415 102C54.5929 102 63.0654 100.114 63.0654 97.7865C63.0654 95.4594 54.5929 93.5729 44.1415 93.5729C33.6902 93.5729 25.2177 95.4594 25.2177 97.7865C25.2177 100.114 33.6902 102 44.1415 102Z" fill="url(#paint0_radial_2_235)"/>
<g id="Group_5">
<path id="Vector_169" d="M88.189 0.559097L89.544 1.13916L88.189 16.2857L87.0288 16.8054L80.6528 17.4458L80.1702 20.1094L75.5251 16.2857L88.189 0.559097Z" fill="url(#paint1_linear_2_235)"/>
<path id="Vector_170" d="M40.4245 81.4288C39.8723 84.6493 37.4268 92.0926 35.2318 91.3083C34.7585 91.1413 34.262 90.538 33.7654 89.6563C32.2666 86.9695 30.7909 81.6886 30.0577 78.1155C29.6586 76.1665 29.4823 74.7279 29.6401 74.4912C30.6192 73.0434 39.9187 79.3266 40.4756 80.0273C40.5777 80.1573 40.5545 80.677 40.4245 81.4288Z" fill="url(#paint2_linear_2_235)"/>
<path id="Vector_171" d="M55.1488 77.0806C55.1163 77.3776 55.0745 77.6885 55.0281 78.0087C54.3692 82.8998 53.0142 90.0879 51.5524 92.7005C51.2044 93.327 50.8471 93.6936 50.4944 93.6982C50.4016 93.7028 50.3088 93.6889 50.2113 93.6564C49.8818 93.559 49.5338 93.2945 49.1765 92.8954V92.8907C46.963 90.4035 44.4618 82.8534 44.3736 80.5981C44.3643 80.3197 44.3875 80.1201 44.4571 80.0227C45.7193 78.3104 54.8657 72.4587 55.3762 73.1548C55.5154 73.345 55.4133 74.9042 55.1488 77.0806Z" fill="url(#paint3_linear_2_235)"/>
<path id="Vector_172" d="M29.6401 74.4913C28.6099 75.837 36.9999 81.9253 40.5359 80.3336C40.5359 80.3336 31.0044 72.7047 29.6401 74.4913Z" fill="url(#paint4_linear_2_235)"/>
<path id="Vector_173" d="M44.3783 80.5981C44.0998 81.2849 53.7845 79.7118 55.3808 73.1595C55.3808 73.1595 47.0048 74.1386 44.3783 80.5981Z" fill="url(#paint5_linear_2_235)"/>
<path id="Vector_174" opacity="0.3" d="M33.306 80.1434C32.8373 80.7234 33.4174 88.2596 35.2272 91.3037C34.7539 91.1367 34.2573 90.5334 33.7608 89.6517C33.4684 88.3338 33.0322 86.3755 32.6192 84.4173C32.0902 81.9021 30.7445 79.3174 30.0577 78.1108C29.6586 76.1618 29.4823 74.7233 29.6401 74.4866C30.6192 73.0388 39.9187 79.322 40.4756 80.0227C40.5777 80.1573 40.5545 80.677 40.4245 81.4288C40.4245 81.4288 33.7794 79.568 33.306 80.1434Z" fill="url(#paint6_linear_2_235)"/>
<path id="Vector_175" d="M49.6916 82.8766C49.2971 82.9972 49.2043 86.1528 49.8633 86.3291C50.5222 86.5054 50.6057 82.5981 49.6916 82.8766Z" fill="white"/>
<path id="Vector_176" opacity="0.3" d="M55.1488 77.0806C55.1488 77.0806 49.8493 78.6491 48.6242 81.1642C47.3992 83.6747 47.8586 89.6424 49.1811 92.8907C46.9676 90.4034 44.4664 82.8534 44.3782 80.5981C44.3689 80.3197 44.3921 80.1201 44.4617 80.0227C45.7239 78.3104 54.8703 72.4587 55.3808 73.1548C55.5154 73.345 55.4133 74.9042 55.1488 77.0806Z" fill="url(#paint7_linear_2_235)"/>
<path id="Vector_177" d="M32.2572 52.384C32.2479 55.1822 31.8535 59.2241 30.5866 62.491C28.4845 67.9018 25.3289 74.7094 25.2361 74.9228L25.2315 74.9275C23.3057 76.1015 20.9947 76.0412 19.5283 75.8277C18.6374 75.6978 18.0573 75.5122 18.0573 75.5122C18.0573 75.5122 18.7116 69.3171 22.1177 62.2961C23.8254 58.7693 26.0065 55.4885 27.8859 53.0708C27.8951 53.0615 27.9044 53.0476 27.9137 53.0383C27.9323 53.0058 27.9601 52.978 27.9833 52.9455C27.9972 52.9269 28.0111 52.913 28.0204 52.8945C28.0343 52.8805 28.0483 52.862 28.0529 52.8481C28.0715 52.8249 28.0854 52.8063 28.104 52.7877C28.1086 52.7831 28.1132 52.7785 28.1132 52.7785C28.1179 52.7738 28.1225 52.7692 28.1225 52.7692C30.0298 50.3468 31.5797 48.8804 31.9045 49.0568C32.0901 49.1589 32.2618 50.4814 32.2572 52.384Z" fill="url(#paint8_linear_2_235)"/>
<path id="Vector_178" d="M18.0806 75.2662C18.0806 75.2662 20.5632 71.1687 23.1248 71.7023C25.6863 72.236 25.2269 74.9275 25.2269 74.9275C25.2269 74.9275 21.9507 77.2941 18.0806 75.2662Z" fill="url(#paint9_linear_2_235)"/>
<path id="Vector_179" opacity="0.3" d="M32.2572 52.384C32.2479 55.1822 31.8535 59.2241 30.5866 62.491C28.4845 67.9018 25.3289 74.7093 25.2361 74.9228L25.2315 74.9274L19.5283 75.8277C18.6374 75.6978 18.0573 75.5121 18.0573 75.5121C18.0573 75.5121 18.7116 69.3171 22.1177 62.2961C23.8254 58.7693 26.0065 55.4885 27.8859 53.0708C26.8093 54.4908 22.3126 60.6672 21.1015 65.9156C19.7232 71.8879 25.2779 69.5863 27.5517 65.9156C29.8209 62.245 32.1922 52.3886 32.1922 52.3886H32.2572V52.384Z" fill="url(#paint10_linear_2_235)"/>
<path id="Vector_180" d="M26.0482 61.9296C25.5981 61.7579 27.9322 56.4677 28.6562 56.4213C29.3801 56.3703 26.4334 62.0734 26.0482 61.9296Z" fill="white"/>
<path id="Vector_181" d="M25.8116 62.491C25.4543 62.3007 25.1202 63.2938 25.445 63.4376C25.7699 63.5815 26.2153 62.7044 25.8116 62.491Z" fill="white"/>
<path id="Vector_182" d="M22.2987 72.9366C20.9715 72.7185 19.0457 73.9622 18.4471 75.0759C17.8438 76.1896 17.5329 82.6028 19.0503 87.9022C19.0503 87.9022 21.1896 88.4823 22.7906 87.9022C24.3962 87.3221 25.5099 82.6445 25.598 79.127C25.6816 75.6096 24.4797 73.294 22.2987 72.9366Z" fill="url(#paint11_linear_2_235)"/>
<path id="Vector_183" d="M22.0993 88.0785C22.0993 88.0785 20.1456 76.7883 24.5866 74.4819C24.5866 74.4819 25.9045 76.7186 25.4172 81.0853C24.9253 85.452 24.1736 87.6795 22.0993 88.0785Z" fill="url(#paint12_linear_2_235)"/>
<path id="Vector_184" opacity="0.5" d="M21.779 81.8139C21.779 81.8139 22.9205 83.4799 23.7001 83.7536C24.4797 84.0274 25.0876 83.7397 25.0876 83.7397L22.2059 78.6166C22.2105 78.6166 21.6861 80.6492 21.779 81.8139Z" fill="url(#paint13_linear_2_235)"/>
<path id="Vector_185" d="M22.2107 78.6166C22.2107 78.6166 22.8418 75.4889 24.7304 74.7279C24.7304 74.7279 26.4845 76.4588 26.0391 83.1828C26.0391 83.1828 25.0599 84.4729 23.6771 83.1828C23.6771 83.1782 22.5216 80.8858 22.2107 78.6166Z" fill="url(#paint14_linear_2_235)"/>
<path id="Vector_186" d="M23.2873 77.5122C22.6469 77.5122 23.6214 80.3522 23.9555 80.2825C24.2896 80.2176 23.8256 77.5122 23.2873 77.5122Z" fill="white"/>
<path id="Vector_187" d="M30.5822 12.629C30.5822 12.629 27.6819 10.1231 24.1272 9.69157C24.1272 9.69157 23.0414 10.2252 21.7838 14.1372C20.5262 18.0491 22.8465 25.7848 22.8465 25.7848L30.5822 12.629Z" fill="url(#paint15_linear_2_235)"/>
<path id="Vector_188" d="M22.7535 11.6452C22.7535 11.6452 23.3243 10.3227 24.1317 9.6962C24.1317 9.6962 27.0552 12.3923 26.9392 18.8379L26.0947 19.7104L22.7535 11.6452Z" fill="url(#paint16_linear_2_235)"/>
<path id="Vector_189" d="M54.6013 12.629C54.6013 12.629 57.5016 10.1231 61.0562 9.69157C61.0562 9.69157 62.1421 10.2252 63.3997 14.1372C64.6572 18.0491 62.337 25.7848 62.337 25.7848L54.6013 12.629Z" fill="url(#paint17_linear_2_235)"/>
<path id="Vector_190" d="M61.056 9.69155C61.056 9.69155 58.1836 12.7728 58.1836 17.7381L59.2973 18.4389L62.5363 11.738C62.5317 11.738 61.4551 9.63122 61.056 9.69155Z" fill="url(#paint18_linear_2_235)"/>
<path id="Vector_191" d="M59.1861 18.1001C59.1861 18.1001 58.4204 13.8587 61.214 10.7449C61.214 10.7449 64.3649 12.2299 65.6735 17.7381C66.9775 23.2464 63.5806 26.555 63.5806 26.555L59.1861 18.1001Z" fill="url(#paint19_linear_2_235)"/>
<path id="Vector_192" d="M25.9972 18.1001C25.9972 18.1001 26.7629 13.8587 23.9693 10.7449C23.9693 10.7449 20.8184 12.2299 19.5098 17.7381C18.2059 23.2464 21.6027 26.555 21.6027 26.555L25.9972 18.1001Z" fill="url(#paint20_linear_2_235)"/>
<path id="Vector_193" d="M63.0607 41.5392C56.5826 50.6206 26.1456 49.9478 22.1827 42.6019C19.5979 37.8036 19.881 30.5923 22.3683 23.9564C25.6352 15.2462 32.7073 7.51984 42.0903 7.51984C53.13 7.51984 61.6128 18.5178 64.1651 28.5644C65.4598 33.6457 65.2371 38.4858 63.0607 41.5392Z" fill="url(#paint21_linear_2_235)"/>
<path id="Vector_194" d="M24.4567 33.1121C25.9045 39.2978 52.6615 39.9707 59.2324 34.365C65.8033 28.7593 56.3414 8.84699 41.8445 9.71476C28.5867 10.5129 22.0807 22.9819 24.4567 33.1121Z" fill="#DFE3FB"/>
<path id="Vector_195" d="M24.3173 32.3603C25.7651 38.546 52.5222 39.2189 59.0931 33.6132C65.664 28.0075 56.202 8.09521 41.7052 8.96298C28.4473 9.76114 21.9414 22.2301 24.3173 32.3603Z" fill="url(#paint22_linear_2_235)"/>
<path id="Vector_196" opacity="0.3" d="M63.0607 41.5392C56.5826 50.6206 26.1456 49.9477 22.1827 42.6019C19.5979 37.8036 19.881 30.5923 22.3683 23.9564C22.3683 23.9518 22.3729 23.9518 22.3729 23.9518C22.2662 24.3416 19.7139 33.6457 22.3172 37.7386C24.9809 41.9244 35.5148 41.3443 46.8236 40.8617C58.1325 40.3744 61.8727 38.7363 63.7707 35.5437C65.2649 33.0332 63.7614 27.4971 63.056 25.2511L64.1651 28.5598C65.4598 33.6457 65.2371 38.4858 63.0607 41.5392Z" fill="url(#paint23_linear_2_235)"/>
<path id="Vector_197" d="M42.1229 48.2261C35.7979 48.2168 31.2363 47.5068 28.6841 46.4859H28.6794C27.0042 45.8177 26.1921 45.0149 26.3128 44.1935C26.387 43.6923 27.6307 43.2515 29.5843 42.8941C35.3292 41.8547 47.2228 41.5391 53.6313 42.5136C54.1835 42.5972 54.694 42.69 55.158 42.7921C55.2555 42.8153 55.3529 42.8385 55.4457 42.8617C55.4643 42.8663 55.4782 42.8709 55.5014 42.8709C56.6058 43.1447 57.3901 43.4742 57.7381 43.8826C57.8263 43.9847 57.8866 44.0914 57.9191 44.1981C58.5131 46.2446 47.84 48.2261 42.1229 48.2261Z" fill="url(#paint24_linear_2_235)"/>
<path id="Vector_198" opacity="0.5" d="M57.8449 43.6877C57.8217 43.748 57.7893 43.813 57.7382 43.8779C57.1164 44.755 54.6059 45.8826 54.6059 45.8826C54.6059 45.8826 44.9444 41.9289 37.1159 43.6877C29.2874 45.4464 28.6888 46.4859 28.6888 46.4859H28.6842C27.0089 45.8177 26.1969 45.0149 26.3175 44.1935C26.3918 43.6923 27.6354 43.2515 29.5891 42.8941C35.334 41.8547 47.2275 41.5391 53.636 42.5136C54.3043 42.6343 54.9122 42.7503 55.4505 42.8617C55.469 42.8663 55.4829 42.8709 55.5061 42.8709C57.0189 43.1958 57.9145 43.4881 57.8449 43.6877Z" fill="url(#paint25_linear_2_235)"/>
<path id="Vector_199" d="M55.1581 42.7875C53.6639 44.2167 46.4897 45.4557 42.4014 45.4511C35.0741 45.4418 30.6193 44.2863 29.5844 42.8895C35.8259 41.7619 49.3204 41.4881 55.1581 42.7875Z" fill="url(#paint26_linear_2_235)"/>
<path id="Vector_200" d="M54.6986 71.4471C53.8169 76.663 49.144 80.1433 42.4478 80.1433C36.6193 80.1433 31.6772 77.9716 30.3732 73.1826C29.0693 68.4029 29.5751 59.5582 31.3153 54.0499C31.5751 53.2285 31.8907 52.435 32.2526 51.6833L32.2573 51.674C32.5868 50.9918 32.9533 50.3422 33.3571 49.7343C33.3617 49.7296 33.3617 49.725 33.3617 49.725C35.4871 46.523 38.6008 44.4302 42.1229 44.4302C45.7889 44.4302 48.5918 45.9383 50.499 48.1658C51.3853 49.2006 52.0814 50.3979 52.5779 51.6647C53.1534 53.1265 53.636 54.6764 54.0165 56.2727C54.0165 56.282 54.0211 56.3005 54.0258 56.3191C55.2323 61.3308 55.4875 66.788 54.6986 71.4471Z" fill="url(#paint27_linear_2_235)"/>
<path id="Vector_201" d="M50.1231 47.7574C50.1231 47.7574 50.6939 53.9571 54.332 57.7252C54.3367 57.7206 53.325 51.9432 50.1231 47.7574Z" fill="url(#paint28_linear_2_235)"/>
<path id="Vector_202" d="M70.699 40.1842C64.9958 51.4931 54.9353 55.3539 54.9353 55.3539C52.1695 53.5627 49.7611 47.7203 50.7124 46.5788L50.7171 46.5741C50.7635 46.5185 50.8238 46.4721 50.8888 46.4396C63.1628 40.5694 66.8335 34.4764 66.8335 34.4764C68.4901 34.5971 69.4368 35.5623 69.9797 36.6714C70.7639 38.2862 70.699 40.1842 70.699 40.1842Z" fill="url(#paint29_linear_2_235)"/>
<path id="Vector_203" opacity="0.5" d="M22.1827 42.6018C22.1827 42.6018 23.4681 41.1029 25.9879 39.8918C28.5077 38.6852 30.8279 37.7386 31.1853 36.7687C31.5426 35.7989 24.2663 36.3697 24.2663 36.3697L20.6467 37.9428C20.6514 37.9428 21.2175 40.8616 22.1827 42.6018Z" fill="url(#paint30_linear_2_235)"/>
<path id="Vector_204" d="M66.8335 34.481C65.8126 34.7548 65.9146 41.5345 67.2186 42.212C68.5226 42.8895 70.699 40.1841 70.699 40.1841C70.699 40.1841 70.453 33.5158 66.8335 34.481Z" fill="url(#paint31_linear_2_235)"/>
<path id="Vector_205" d="M47.4549 22.3508C48.4201 24.0538 54.8239 22.541 55.1859 21.5294C55.6685 20.1744 53.8819 15.9237 50.499 16.3089C47.1161 16.6987 46.9862 21.5248 47.4549 22.3508Z" fill="url(#paint32_linear_2_235)"/>
<path id="Vector_206" d="M37.45 22.3508C36.4847 24.0538 30.0809 22.541 29.7189 21.5294C29.2363 20.1744 31.0229 15.9237 34.4058 16.3089C37.7841 16.6987 37.9187 21.5248 37.45 22.3508Z" fill="url(#paint33_linear_2_235)"/>
<path id="Vector_207" d="M35.6633 25.4924C35.6633 25.4924 37.487 27.3764 42.6658 27.3764C47.84 27.3764 50.4989 25.2 50.4989 25.2C50.4989 25.2 48.2158 28.2906 42.6658 28.2906C37.1158 28.2952 35.6633 25.4924 35.6633 25.4924Z" fill="#2F95CD"/>
<path id="Vector_208" d="M19.2176 19.7057C19.2176 19.7057 21.097 20.9122 19.8626 23.7104C19.8626 23.7104 11.0921 28.4855 11.6026 33.6921C12.0248 38.0356 24.1411 35.9335 24.1411 35.9335L24.5773 37.3813C24.5773 37.3813 14.2848 39.3953 10.7348 36.9729C10.7348 36.9729 9.52827 34.1051 12.5214 28.9356C15.5145 23.7661 19.2176 19.7057 19.2176 19.7057Z" fill="url(#paint34_linear_2_235)"/>
<path id="Vector_209" d="M22.6051 35.5297C21.5006 36.778 23.8441 38.147 25.7699 38.3558C27.9323 38.5924 31.77 37.734 31.538 35.5576C31.306 33.3812 25.1945 32.6016 22.6051 35.5297Z" fill="url(#paint35_linear_2_235)"/>
<path id="Vector_210" opacity="0.5" d="M28.7073 16.7219C28.3732 18.7266 32.8327 18.6384 38.9024 18.4389C46.1973 18.1976 53.5292 24.4808 57.7985 19.9702C58.5038 19.2278 51.5153 9.47347 43.0835 9.69158C34.6471 9.90968 28.995 14.9817 28.7073 16.7219Z" fill="url(#paint36_linear_2_235)"/>
<path id="Vector_211" opacity="0.5" d="M32.842 34.1701C32.4568 35.6226 35.4964 37.0751 42.9629 36.7085C51.9933 36.2676 53.9098 34.3743 53.4689 33.8499C53.2044 33.5344 50.499 35.2374 43.0789 33.6133C38.1832 32.5413 33.2457 32.6434 32.842 34.1701Z" fill="url(#paint37_linear_2_235)"/>
<path id="Vector_212" opacity="0.3" d="M62.9963 25.062L62.7778 24.4019C62.8196 24.5274 62.9033 24.7552 62.9963 25.062Z" fill="url(#paint38_linear_2_235)"/>
<path id="Vector_213" opacity="0.3" d="M54.6986 71.447C53.8169 76.6629 49.144 80.1432 42.4478 80.1432C36.6193 80.1432 31.6772 77.9715 30.3732 73.1825C29.0693 68.4028 29.5751 59.5581 31.3153 54.0498C31.5751 53.2284 31.8907 52.4349 32.2526 51.6832L32.2573 51.6739C32.2573 51.6739 28.7305 63.3679 31.5473 70.8159C34.3687 78.2638 47.5013 78.1061 51.9468 73.1593C56.179 68.4492 54.2207 57.3863 54.0258 56.3283C55.2323 61.3307 55.4875 66.7879 54.6986 71.447Z" fill="url(#paint39_linear_2_235)"/>
<path id="Vector_214" d="M30.6238 68.3518C31.6215 61.3493 37.2365 56.6021 43.4779 57.1915C50.202 57.8272 53.8169 64.245 53.7241 69.7532C53.6266 75.2615 49.6033 79.5632 42.3828 79.5632C35.1668 79.5632 29.691 74.8995 30.6238 68.3518Z" fill="url(#paint40_linear_2_235)"/>
<path id="Vector_215" d="M30.6888 68.9319C31.6865 61.9294 37.3014 57.1822 43.5429 57.7716C50.2669 58.4073 53.8819 64.8251 53.7891 70.3333C53.6916 75.8416 49.6683 80.1433 42.4477 80.1433C35.2271 80.1433 29.756 75.4796 30.6888 68.9319Z" fill="url(#paint41_radial_2_235)"/>
<path id="Vector_216" opacity="0.5" d="M50.499 48.1704C49.0744 50.4071 41.2181 51.7111 36.6797 51.2981C32.726 50.9361 33.3292 49.8688 33.3571 49.7343C33.3617 49.7296 33.3617 49.725 33.3617 49.725C35.4871 46.523 38.6008 44.4302 42.123 44.4302C45.7843 44.4348 48.5918 45.9384 50.499 48.1704Z" fill="url(#paint42_linear_2_235)"/>
<path id="Vector_217" d="M47.7055 52.0499C47.3389 52.1705 47.3249 55.1126 47.7055 55.5906C48.086 56.0639 48.7032 55.92 48.9073 55.224C49.1115 54.5325 48.2577 51.8689 47.7055 52.0499Z" fill="white"/>
<path id="Vector_218" d="M48.3829 56.3748C48.0766 56.449 48.0442 57.1776 48.1834 57.4328C48.3226 57.688 48.8516 57.6324 48.9398 57.3214C49.0233 57.0105 48.6892 56.3005 48.3829 56.3748Z" fill="white"/>
<path id="Vector_219" opacity="0.72" d="M34.6378 76.0643C34.6378 76.0643 36.248 78.8718 42.2528 78.895C48.2576 78.9182 50.6985 75.345 50.6985 75.345C50.6985 75.345 47.9281 77.1502 43.9698 76.0643C40.0068 74.9784 36.0903 74.3705 34.6378 76.0643Z" fill="url(#paint43_linear_2_235)"/>
<path id="Vector_220" d="M47.2552 8.79601C46.6148 8.94451 51.9932 11.7938 52.2113 11.455C52.4294 11.1163 49.0325 8.38301 47.2552 8.79601Z" fill="white"/>
<path id="Vector_221" d="M57.5664 10.926C57.0281 11.2137 57.0745 11.7937 58.1836 11.6499C59.2927 11.506 59.8959 10.6336 59.7753 10.4665C59.6546 10.2995 58.1697 10.6011 57.5664 10.926Z" fill="white"/>
<path id="Vector_222" opacity="0.3" d="M70.699 40.1842C64.9958 51.493 54.9353 55.3539 54.9353 55.3539C52.1695 53.5627 49.7611 47.7203 50.7124 46.5788L50.7171 46.5741C50.7727 46.5231 50.8284 46.4813 50.8888 46.4395C50.8888 46.4395 52.6846 53.0337 57.9423 51.2053C64.1837 49.0336 66.736 38.1888 66.736 38.1888V35.01L69.975 36.676C70.7639 38.2862 70.699 40.1842 70.699 40.1842Z" fill="url(#paint44_linear_2_235)"/>
<path id="Vector_223" d="M66.4669 36.3929C66.4669 36.3929 66.4205 39.9707 68.4484 40.5507C70.4763 41.1308 73.0146 37.3395 73.9566 35.7664C74.8986 34.1933 76.3233 27.1165 74.9729 25.4228C73.6179 23.7336 71.0099 24.1652 69.2697 26.5365C69.2697 26.5365 66.5643 33.3487 66.4669 36.3929Z" fill="url(#paint45_linear_2_235)"/>
<path id="Vector_224" d="M66.5782 35.3348C66.5782 35.3348 68.931 33.5436 69.4646 30.7918C69.9983 28.0354 72.8475 24.4065 72.8475 24.4065C72.8475 24.4065 71.3487 24.2673 69.2697 26.5411C67.1908 28.8103 66.5782 35.3348 66.5782 35.3348Z" fill="url(#paint46_linear_2_235)"/>
<path id="Vector_225" opacity="0.5" d="M68.8985 27.0099L70.699 27.6874C70.699 27.6874 69.9008 29.0285 69.576 30.3092C69.2511 31.59 68.0307 33.3395 68.0307 33.3395L68.8985 27.0099Z" fill="url(#paint47_linear_2_235)"/>
<path id="Vector_226" d="M66.5783 34.6573C66.5783 34.6573 65.9612 33.3023 65.8776 30.6944C65.7941 28.0864 66.4113 26.0307 66.7036 25.6687C66.9913 25.3068 68.0076 25.3532 68.4902 25.9332C68.9728 26.5133 69.3209 29.3811 69.3209 29.3811C69.3209 29.3811 68.6666 34.0262 66.5783 34.6573Z" fill="url(#paint48_linear_2_235)"/>
<path id="Vector_227" d="M69.4646 30.7918C69.4646 30.7918 70.6758 34.778 73.5854 36.3743L73.9613 35.7711C73.9613 35.7711 70.996 34.2072 69.5806 30.3139L69.4646 30.7918Z" fill="url(#paint49_linear_2_235)"/>
<path id="Vector_228" d="M67.3393 27.6177C67.047 27.5852 67.1444 30.1514 67.5064 30.0447C67.8683 29.9379 67.7477 27.6688 67.3393 27.6177Z" fill="white"/>
<path id="Vector_229" d="M22.7536 35.7572C22.6886 36.1145 30.4058 36.198 30.5867 34.8337C30.7631 33.474 23.2594 33.0054 22.7536 35.7572Z" fill="url(#paint50_linear_2_235)"/>
<path id="Vector_230" opacity="0.2" d="M24.6468 30.3232C24.6468 30.3232 24.3312 28.2164 24.7025 25.3903C25.0737 22.5643 25.8301 20.7406 26.2849 20.9958C26.735 21.251 26.6654 24.0214 26.9346 26.7453C27.1434 28.866 27.5517 30.8614 27.5517 30.8614C27.5517 30.8614 25.5981 32.7316 24.6468 30.3232Z" fill="url(#paint51_linear_2_235)"/>
<path id="Vector_231" opacity="0.72" d="M33.074 64.4863C34.2619 66.3797 39.1391 65.3727 44.638 65.9063C50.137 66.4446 51.0744 68.2312 52.2345 67.8693C53.3946 67.5073 51.5616 59.2287 43.348 58.6672C35.1297 58.1103 32.777 64.0177 33.074 64.4863Z" fill="url(#paint52_linear_2_235)"/>
<path id="Vector_232" d="M70.9264 0.559092C70.9264 0.559092 70.88 11.4828 71.7106 16.7729L80.1702 20.1048L78.8152 17.7335L87.0289 16.8008C87.0289 16.8008 87.8966 4.51742 88.189 0.554451C88.189 0.559091 81.7155 -0.698478 70.9264 0.559092Z" fill="url(#paint53_linear_2_235)"/>
<g id="Group_6">
<path id="Vector_233" d="M77.1353 5.44569C77.1028 6.08608 77.075 6.71719 77.0518 7.34829C77.0286 7.97476 77.0147 8.60586 77.0054 9.23697C77.0843 9.24161 77.1678 9.24625 77.2513 9.24625C77.3349 9.24625 77.4138 9.24625 77.4973 9.24625C77.5994 9.24625 77.7061 9.24625 77.8128 9.24161C77.9196 9.23697 78.0309 9.23233 78.1377 9.22769C78.1423 9.08383 78.147 8.94462 78.147 8.81004C78.147 8.67083 78.147 8.53161 78.147 8.38776C78.147 7.89587 78.1423 7.40862 78.133 6.92137C78.1237 6.43412 78.1052 5.94223 78.0866 5.45034H79.2792C79.2189 6.22994 79.1771 7.00025 79.1447 7.76593C79.1122 8.53161 79.0983 9.30657 79.0983 10.0815C79.0983 10.4621 79.1029 10.8426 79.1122 11.2185C79.1215 11.5943 79.1354 11.9749 79.1493 12.36H78.0449C78.0588 11.9749 78.0773 11.5943 78.0866 11.2138C78.1006 10.8333 78.1145 10.4528 78.1238 10.0723C77.9381 10.063 77.7572 10.0537 77.5762 10.0444C77.3952 10.0351 77.2142 10.0305 77.0332 10.0305H76.9961V11.0282C76.9961 11.2556 76.9961 11.4783 76.9961 11.6964C76.9961 11.9145 77.0008 12.1373 77.0054 12.36H75.8963C75.9102 11.896 75.9242 11.4366 75.9288 10.9818C75.9334 10.527 75.9381 10.0723 75.9381 9.61285C75.9381 8.22534 75.9102 6.8332 75.8499 5.44569H77.1353Z" fill="white"/>
<path id="Vector_234" d="M81.7619 12.332C81.632 12.3274 81.5021 12.3227 81.3768 12.3181C81.2469 12.3135 81.1169 12.3135 80.9916 12.3135C80.7782 12.3135 80.5647 12.3181 80.3512 12.3274C80.1378 12.3367 79.9243 12.3459 79.7109 12.3645L79.7201 11.325C79.7944 11.3343 79.8686 11.3436 79.9429 11.3482C80.0171 11.3529 80.0914 11.3575 80.1656 11.3668C80.1842 10.8656 80.2027 10.3691 80.2213 9.87257C80.2399 9.37604 80.2491 8.87951 80.2491 8.38297C80.2491 8.04886 80.2445 7.72402 80.2352 7.39919C80.2259 7.07436 80.2167 6.74953 80.2074 6.42005C80.1239 6.42005 80.0357 6.42005 79.9522 6.42469C79.864 6.42933 79.7758 6.43397 79.6877 6.43861L79.6969 5.42699C79.9475 5.44091 80.1935 5.45483 80.4441 5.46411C80.6946 5.47339 80.9406 5.47803 81.1958 5.47803C81.284 5.47803 81.3768 5.47803 81.465 5.47803C81.5531 5.47803 81.6459 5.47339 81.7387 5.46875L81.7109 6.43397C81.6367 6.43397 81.5624 6.43397 81.4882 6.42933C81.4139 6.42469 81.3443 6.42469 81.2701 6.42469C81.2237 7.00475 81.1912 7.58481 81.1726 8.15559C81.154 8.72637 81.1448 9.30643 81.1448 9.88649C81.1448 10.3923 81.154 10.8981 81.1726 11.4039C81.2747 11.4039 81.3814 11.4039 81.4882 11.3993C81.5949 11.3946 81.7063 11.39 81.813 11.3854L81.7619 12.332Z" fill="white"/>
<path id="Vector_235" d="M83.3304 11.9932C83.3304 12.0721 83.3165 12.1417 83.284 12.2113C83.2516 12.2809 83.2144 12.3366 83.1634 12.3876C83.1124 12.4387 83.052 12.4758 82.9824 12.5083C82.9128 12.5361 82.8386 12.5501 82.7643 12.5501C82.6854 12.5501 82.6158 12.5361 82.5509 12.5083C82.4859 12.4805 82.4256 12.4387 82.3745 12.3876C82.3235 12.3366 82.2817 12.2809 82.2539 12.2113C82.226 12.1417 82.2121 12.0721 82.2121 11.9932C82.2121 11.9143 82.226 11.8447 82.2539 11.7797C82.2817 11.7148 82.3235 11.6545 82.3745 11.6034C82.4256 11.5524 82.4859 11.5106 82.5509 11.4828C82.6158 11.4549 82.6901 11.441 82.7643 11.441C82.8432 11.441 82.9128 11.4549 82.9824 11.4828C83.052 11.5106 83.1124 11.5524 83.1634 11.6034C83.2144 11.6545 83.2516 11.7148 83.284 11.7797C83.3165 11.8447 83.3304 11.9143 83.3304 11.9932ZM83.4186 5.37589C83.3304 6.2715 83.2562 7.17175 83.2052 8.08128C83.1541 8.99082 83.1216 9.88643 83.1124 10.7681L82.4673 10.7867C82.4441 9.90035 82.4163 9.0001 82.3792 8.08593C82.342 7.17175 82.3003 6.2715 82.2492 5.38516L83.4186 5.37589Z" fill="white"/>
</g>
<path id="Vector_236" opacity="0.72" d="M63.6177 13.2369C63.6177 13.2369 62.5968 11.9701 61.2 12.3088C59.8079 12.6476 59.7151 17.0375 60.5457 17.1442C61.381 17.2509 61.7337 14.7172 62.3694 14.3181C63.0098 13.9191 64.1235 14.0722 64.1235 14.0722L63.6177 13.2369Z" fill="url(#paint54_linear_2_235)"/>
<path id="Vector_237" opacity="0.72" d="M20.5586 14.7636C20.5586 14.7636 21.0969 14.1557 22.3034 14.3506C23.5099 14.5502 24.206 17.0282 24.8278 16.7776C25.445 16.527 24.9949 12.513 23.3568 11.3297C23.3568 11.3297 21.2547 13.1302 20.5586 14.7636Z" fill="url(#paint55_linear_2_235)"/>
<path id="Vector_238" d="M18.9205 20.6106C18.9205 20.6106 14.6466 25.4089 14.9065 25.7523C15.1663 26.0956 19.1757 21.1071 18.9205 20.6106Z" fill="url(#paint56_linear_2_235)"/>
</g>
</g>
<defs>
<radialGradient id="paint0_radial_2_235" cx="0" cy="0" r="1" gradientUnits="userSpaceOnUse" gradientTransform="translate(44.1417 97.7869) scale(18.9274 4.21133)">
<stop stop-color="#BE9DEA"/>
<stop offset="0.3883" stop-color="#E0BFF5"/>
<stop offset="1" stop-color="white"/>
</radialGradient>
<linearGradient id="paint1_linear_2_235" x1="81.7181" y1="20.2175" x2="83.1388" y2="0.200853" gradientUnits="userSpaceOnUse">
<stop stop-color="#A242EA"/>
<stop offset="1" stop-color="#FE117E"/>
</linearGradient>
<linearGradient id="paint2_linear_2_235" x1="33.3737" y1="91.0971" x2="35.4061" y2="74.9149" gradientUnits="userSpaceOnUse">
<stop stop-color="#CBC1F7"/>
<stop offset="1" stop-color="#E8DCF7"/>
</linearGradient>
<linearGradient id="paint3_linear_2_235" x1="47.9222" y1="93.3831" x2="50.5437" y2="72.5105" gradientUnits="userSpaceOnUse">
<stop stop-color="#CBC1F7"/>
<stop offset="1" stop-color="#E8DCF7"/>
</linearGradient>
<linearGradient id="paint4_linear_2_235" x1="35.0433" y1="80.5968" x2="35.0433" y2="74.2195" gradientUnits="userSpaceOnUse">
<stop stop-color="#BE9DEA"/>
<stop offset="1" stop-color="#9E8CEF"/>
</linearGradient>
<linearGradient id="paint5_linear_2_235" x1="49.8759" y1="80.7446" x2="49.8759" y2="73.1594" gradientUnits="userSpaceOnUse">
<stop stop-color="#BE9DEA"/>
<stop offset="1" stop-color="#9E8CEF"/>
</linearGradient>
<linearGradient id="paint6_linear_2_235" x1="35.0589" y1="91.3061" x2="35.0589" y2="74.2731" gradientUnits="userSpaceOnUse">
<stop stop-color="#9D68C2"/>
<stop offset="1" stop-color="#CCEDFF"/>
</linearGradient>
<linearGradient id="paint7_linear_2_235" x1="49.9077" y1="92.8898" x2="49.9077" y2="73.101" gradientUnits="userSpaceOnUse">
<stop stop-color="#9D68C2"/>
<stop offset="1" stop-color="#CCEDFF"/>
</linearGradient>
<linearGradient id="paint8_linear_2_235" x1="23.7221" y1="76.3542" x2="27.226" y2="48.4558" gradientUnits="userSpaceOnUse">
<stop stop-color="#CBC1F7"/>
<stop offset="1" stop-color="#E8DCF7"/>
</linearGradient>
<linearGradient id="paint9_linear_2_235" x1="21.6696" y1="76.0868" x2="21.6696" y2="71.6527" gradientUnits="userSpaceOnUse">
<stop stop-color="#BE9DEA"/>
<stop offset="1" stop-color="#9E8CEF"/>
</linearGradient>
<linearGradient id="paint10_linear_2_235" x1="25.1536" y1="75.8245" x2="25.1536" y2="52.3823" gradientUnits="userSpaceOnUse">
<stop stop-color="#9D68C2"/>
<stop offset="1" stop-color="#CCEDFF"/>
</linearGradient>
<linearGradient id="paint11_linear_2_235" x1="20.604" y1="88.1579" x2="22.5126" y2="72.9611" gradientUnits="userSpaceOnUse">
<stop stop-color="#CBC1F7"/>
<stop offset="1" stop-color="#E8DCF7"/>
</linearGradient>
<linearGradient id="paint12_linear_2_235" x1="23.5986" y1="88.0795" x2="23.5986" y2="74.4843" gradientUnits="userSpaceOnUse">
<stop stop-color="#BE9DEA"/>
<stop offset="1" stop-color="#9E8CEF"/>
</linearGradient>
<linearGradient id="paint13_linear_2_235" x1="23.4289" y1="83.8713" x2="23.4289" y2="78.6144" gradientUnits="userSpaceOnUse">
<stop stop-color="#8DA4E5"/>
<stop offset="1" stop-color="#755CBB"/>
</linearGradient>
<linearGradient id="paint14_linear_2_235" x1="23.7817" y1="83.6231" x2="24.8968" y2="74.7443" gradientUnits="userSpaceOnUse">
<stop stop-color="#CBC1F7"/>
<stop offset="1" stop-color="#E8DCF7"/>
</linearGradient>
<linearGradient id="paint15_linear_2_235" x1="25.9977" y1="25.783" x2="25.9977" y2="9.69204" gradientUnits="userSpaceOnUse">
<stop stop-color="#B9ACF4"/>
<stop offset="1" stop-color="#E1D1F5"/>
</linearGradient>
<linearGradient id="paint16_linear_2_235" x1="24.8454" y1="19.7041" x2="24.8454" y2="9.69202" gradientUnits="userSpaceOnUse">
<stop stop-color="#BE9DEA"/>
<stop offset="1" stop-color="#9E8CEF"/>
</linearGradient>
<linearGradient id="paint17_linear_2_235" x1="59.188" y1="25.783" x2="59.188" y2="9.69204" gradientUnits="userSpaceOnUse">
<stop stop-color="#B9ACF4"/>
<stop offset="1" stop-color="#E1D1F5"/>
</linearGradient>
<linearGradient id="paint18_linear_2_235" x1="60.3563" y1="18.4382" x2="60.3563" y2="9.69081" gradientUnits="userSpaceOnUse">
<stop stop-color="#BE9DEA"/>
<stop offset="1" stop-color="#9E8CEF"/>
</linearGradient>
<linearGradient id="paint19_linear_2_235" x1="62.5311" y1="26.5529" x2="62.5311" y2="10.743" gradientUnits="userSpaceOnUse">
<stop stop-color="#45FFCD"/>
<stop offset="1" stop-color="#22E0FF"/>
</linearGradient>
<linearGradient id="paint20_linear_2_235" x1="22.6544" y1="26.5529" x2="22.6544" y2="10.743" gradientUnits="userSpaceOnUse">
<stop stop-color="#45FFCD"/>
<stop offset="1" stop-color="#22E0FF"/>
</linearGradient>
<linearGradient id="paint21_linear_2_235" x1="40.857" y1="48.6062" x2="45.9727" y2="7.87497" gradientUnits="userSpaceOnUse">
<stop stop-color="#CBC1F7"/>
<stop offset="1" stop-color="#E8DCF7"/>
</linearGradient>
<linearGradient id="paint22_linear_2_235" x1="42.5262" y1="37.4401" x2="42.5262" y2="8.93959" gradientUnits="userSpaceOnUse">
<stop stop-color="#0665BD"/>
<stop offset="1" stop-color="#1A1F77"/>
</linearGradient>
<linearGradient id="paint23_linear_2_235" x1="42.6664" y1="48.2297" x2="42.6664" y2="23.9517" gradientUnits="userSpaceOnUse">
<stop stop-color="#9D68C2"/>
<stop offset="1" stop-color="#CCEDFF"/>
</linearGradient>
<linearGradient id="paint24_linear_2_235" x1="26.3033" y1="45.0736" x2="57.9406" y2="45.0736" gradientUnits="userSpaceOnUse">
<stop stop-color="#8879EA"/>
<stop offset="1" stop-color="#9E8CEF"/>
</linearGradient>
<linearGradient id="paint25_linear_2_235" x1="42.0758" y1="46.4834" x2="42.0758" y2="41.9232" gradientUnits="userSpaceOnUse">
<stop stop-color="#8DA4E5"/>
<stop offset="1" stop-color="#755CBB"/>
</linearGradient>
<linearGradient id="paint26_linear_2_235" x1="41.9955" y1="45.8381" x2="42.5893" y2="41.1103" gradientUnits="userSpaceOnUse">
<stop stop-color="#5E36CC"/>
<stop offset="1" stop-color="#6C4A96"/>
</linearGradient>
<linearGradient id="paint27_linear_2_235" x1="40.5883" y1="80.0829" x2="45.0325" y2="44.6979" gradientUnits="userSpaceOnUse">
<stop stop-color="#CBC1F7"/>
<stop offset="1" stop-color="#E8DCF7"/>
</linearGradient>
<linearGradient id="paint28_linear_2_235" x1="50.125" y1="52.7388" x2="54.3351" y2="52.7388" gradientUnits="userSpaceOnUse">
<stop stop-color="#8879EA"/>
<stop offset="1" stop-color="#9E8CEF"/>
</linearGradient>
<linearGradient id="paint29_linear_2_235" x1="59.0698" y1="55.8743" x2="61.8365" y2="33.8457" gradientUnits="userSpaceOnUse">
<stop stop-color="#CBC1F7"/>
<stop offset="1" stop-color="#E8DCF7"/>
</linearGradient>
<linearGradient id="paint30_linear_2_235" x1="25.9256" y1="42.6006" x2="25.9256" y2="36.2024" gradientUnits="userSpaceOnUse">
<stop stop-color="#8DA4E5"/>
<stop offset="1" stop-color="#755CBB"/>
</linearGradient>
<linearGradient id="paint31_linear_2_235" x1="68.4198" y1="42.3209" x2="68.4198" y2="34.3851" gradientUnits="userSpaceOnUse">
<stop stop-color="#BE9DEA"/>
<stop offset="1" stop-color="#9E8CEF"/>
</linearGradient>
<linearGradient id="paint32_linear_2_235" x1="51.2603" y1="23.1208" x2="51.2603" y2="16.2873" gradientUnits="userSpaceOnUse">
<stop stop-color="#45FFCD"/>
<stop offset="1" stop-color="#22E0FF"/>
</linearGradient>
<linearGradient id="paint33_linear_2_235" x1="33.6422" y1="23.1208" x2="33.6422" y2="16.2873" gradientUnits="userSpaceOnUse">
<stop stop-color="#45FFCD"/>
<stop offset="1" stop-color="#22E0FF"/>
</linearGradient>
<linearGradient id="paint34_linear_2_235" x1="17.2397" y1="38.4198" x2="19.5845" y2="19.7504" gradientUnits="userSpaceOnUse">
<stop stop-color="#BE9DEA"/>
<stop offset="1" stop-color="#9E8CEF"/>
</linearGradient>
<linearGradient id="paint35_linear_2_235" x1="26.3441" y1="38.5305" x2="27.5503" y2="33.4079" gradientUnits="userSpaceOnUse">
<stop stop-color="#DD1A8F"/>
<stop offset="1" stop-color="#FE117E"/>
</linearGradient>
<linearGradient id="paint36_linear_2_235" x1="28.6882" y1="15.6452" x2="57.8445" y2="15.6452" gradientUnits="userSpaceOnUse">
<stop/>
<stop offset="1" stop-color="#6A9BFF"/>
</linearGradient>
<linearGradient id="paint37_linear_2_235" x1="32.8102" y1="34.8355" x2="53.5295" y2="34.8355" gradientUnits="userSpaceOnUse">
<stop/>
<stop offset="1" stop-color="#6A9BFF"/>
</linearGradient>
<linearGradient id="paint38_linear_2_235" x1="62.8881" y1="25.0622" x2="62.8881" y2="24.403" gradientUnits="userSpaceOnUse">
<stop stop-color="#9D68C2"/>
<stop offset="1" stop-color="#CCEDFF"/>
</linearGradient>
<linearGradient id="paint39_linear_2_235" x1="42.3947" y1="80.1433" x2="42.3947" y2="51.6744" gradientUnits="userSpaceOnUse">
<stop stop-color="#9D68C2"/>
<stop offset="1" stop-color="#CCEDFF"/>
</linearGradient>
<linearGradient id="paint40_linear_2_235" x1="42.1219" y1="79.5646" x2="42.1219" y2="57.1425" gradientUnits="userSpaceOnUse">
<stop stop-color="#BE9DEA"/>
<stop offset="1" stop-color="#9E8CEF"/>
</linearGradient>
<radialGradient id="paint41_radial_2_235" cx="0" cy="0" r="1" gradientUnits="userSpaceOnUse" gradientTransform="translate(42.5714 76.6648) scale(17.11 17.11)">
<stop stop-color="#45FFCD"/>
<stop offset="1" stop-color="#22E0FF"/>
</radialGradient>
<linearGradient id="paint42_linear_2_235" x1="41.9034" y1="51.3731" x2="41.9034" y2="44.433" gradientUnits="userSpaceOnUse">
<stop stop-color="#8DA4E5"/>
<stop offset="1" stop-color="#755CBB"/>
</linearGradient>
<linearGradient id="paint43_linear_2_235" x1="42.6664" y1="78.8938" x2="42.6664" y2="75.0099" gradientUnits="userSpaceOnUse">
<stop stop-color="#D4E2FF"/>
<stop offset="1"/>
</linearGradient>
<linearGradient id="paint44_linear_2_235" x1="60.5982" y1="55.3546" x2="60.5982" y2="35.011" gradientUnits="userSpaceOnUse">
<stop stop-color="#9D68C2"/>
<stop offset="1" stop-color="#CCEDFF"/>
</linearGradient>
<linearGradient id="paint45_linear_2_235" x1="69.9724" y1="40.7602" x2="72.0423" y2="24.2802" gradientUnits="userSpaceOnUse">
<stop stop-color="#CBC1F7"/>
<stop offset="1" stop-color="#E8DCF7"/>
</linearGradient>
<linearGradient id="paint46_linear_2_235" x1="69.7117" y1="35.334" x2="69.7117" y2="24.403" gradientUnits="userSpaceOnUse">
<stop stop-color="#BE9DEA"/>
<stop offset="1" stop-color="#9E8CEF"/>
</linearGradient>
<linearGradient id="paint47_linear_2_235" x1="69.3639" y1="33.3405" x2="69.3639" y2="27.0087" gradientUnits="userSpaceOnUse">
<stop stop-color="#8DA4E5"/>
<stop offset="1" stop-color="#755CBB"/>
</linearGradient>
<linearGradient id="paint48_linear_2_235" x1="66.9172" y1="34.6982" x2="68.0704" y2="25.5163" gradientUnits="userSpaceOnUse">
<stop stop-color="#CBC1F7"/>
<stop offset="1" stop-color="#E8DCF7"/>
</linearGradient>
<linearGradient id="paint49_linear_2_235" x1="71.7096" y1="36.3701" x2="71.7096" y2="30.3109" gradientUnits="userSpaceOnUse">
<stop stop-color="#BE9DEA"/>
<stop offset="1" stop-color="#9E8CEF"/>
</linearGradient>
<linearGradient id="paint50_linear_2_235" x1="26.6692" y1="35.982" x2="26.6692" y2="33.7477" gradientUnits="userSpaceOnUse">
<stop stop-color="#D93DE3"/>
<stop offset="1" stop-color="#FF6DBA"/>
</linearGradient>
<linearGradient id="paint51_linear_2_235" x1="25.8741" y1="31.5453" x2="26.597" y2="21.0008" gradientUnits="userSpaceOnUse">
<stop/>
<stop offset="1" stop-color="#00E3FF"/>
</linearGradient>
<linearGradient id="paint52_linear_2_235" x1="33.048" y1="63.2768" x2="52.5459" y2="63.2768" gradientUnits="userSpaceOnUse">
<stop/>
<stop offset="1" stop-color="#D4E2FF"/>
</linearGradient>
<linearGradient id="paint53_linear_2_235" x1="78.1805" y1="19.9664" x2="79.6121" y2="-0.204221" gradientUnits="userSpaceOnUse">
<stop stop-color="#D93DE3"/>
<stop offset="1" stop-color="#FF6DBA"/>
</linearGradient>
<linearGradient id="paint54_linear_2_235" x1="60.0182" y1="14.6981" x2="64.1317" y2="14.6981" gradientUnits="userSpaceOnUse">
<stop/>
<stop offset="1" stop-color="#D4E2FF"/>
</linearGradient>
<linearGradient id="paint55_linear_2_235" x1="20.5586" y1="14.0631" x2="25.0919" y2="14.0631" gradientUnits="userSpaceOnUse">
<stop stop-color="#D4E2FF"/>
<stop offset="1"/>
</linearGradient>
<linearGradient id="paint56_linear_2_235" x1="16.8689" y1="25.8014" x2="16.9551" y2="20.5777" gradientUnits="userSpaceOnUse">
<stop stop-color="#CBC1F7"/>
<stop offset="1" stop-color="#E8DCF7"/>
</linearGradient>
</defs>
</svg>
